<svg width="20" height="13" viewBox="0 0 20 13" fill="none" xmlns="http://www.w3.org/2000/svg">
<path fill-rule="evenodd" clip-rule="evenodd" d="M0.477539 6.25C0.477539 6.07321 0.547316 5.90367 0.671521 5.77866C0.795725 5.65365 0.964182 5.58343 1.13983 5.58343L16.7607 5.58343L12.5922 1.38935C12.4679 1.26418 12.398 1.09442 12.398 0.917414C12.398 0.740405 12.4679 0.570645 12.5922 0.44548C12.7166 0.320316 12.8853 0.249999 13.0612 0.249999C13.237 0.249999 13.4057 0.320316 13.5301 0.44548L18.8284 5.77806C18.8901 5.83998 18.939 5.91354 18.9724 5.99452C19.0058 6.07551 19.023 6.16232 19.023 6.25C19.023 6.33768 19.0058 6.42449 18.9724 6.50547C18.939 6.58646 18.8901 6.66001 18.8284 6.72193L13.5301 12.0545C13.4057 12.1797 13.237 12.25 13.0612 12.25C12.8853 12.25 12.7166 12.1797 12.5922 12.0545C12.4679 11.9294 12.398 11.7596 12.398 11.5826C12.398 11.4056 12.4679 11.2358 12.5922 11.1107L16.7607 6.91657L1.13983 6.91657C0.964183 6.91657 0.795725 6.84634 0.671521 6.72134C0.547316 6.59633 0.477539 6.42679 0.477539 6.25Z" fill="#6F797A"/>
</svg>
