<svg width="128" height="128" viewBox="0 0 128 128" fill="none" xmlns="http://www.w3.org/2000/svg">
<g clip-path="url(#clip0_40_592)">
<mask id="mask0_40_592" style="mask-type:luminance" maskUnits="userSpaceOnUse" x="0" y="0" width="128" height="128">
<path d="M0 0.00037384H128V128H0V0.00037384Z" fill="white"/>
</mask>
<g mask="url(#mask0_40_592)">
<path d="M119.718 87.9419V118.625C119.718 122.767 116.36 126.125 112.218 126.125H15.7815C11.6395 126.125 8.28149 122.767 8.28149 118.625V108.192" stroke="#0E4FE3" stroke-width="5" stroke-miterlimit="10" stroke-linecap="round" stroke-linejoin="round"/>
<path d="M91.8148 118.625H15.794C11.645 118.625 8.28149 115.262 8.28149 111.113V17.9563C8.28149 13.8073 11.645 10.4438 15.794 10.4438H112.205C116.355 10.4438 119.718 13.8073 119.718 17.9563V90.7216C119.718 92.7141 118.927 94.6251 117.518 96.0338L97.127 116.425C96.4294 117.122 95.6012 117.676 94.6897 118.053C93.7783 118.431 92.8013 118.625 91.8148 118.625Z" stroke="#0E4FE3" stroke-width="5" stroke-miterlimit="10" stroke-linecap="round" stroke-linejoin="round"/>
<path d="M88.7362 118.625C92.1357 118.625 94.8917 115.869 94.8917 112.47V99.9538C94.8917 96.5543 97.6474 93.7983 101.047 93.7983H113.563C116.962 93.7983 119.718 91.0426 119.718 87.6431" stroke="#0E4FE3" stroke-width="5" stroke-miterlimit="10" stroke-linecap="round" stroke-linejoin="round"/>
<path d="M30.4499 37.2388H8.28149" stroke="#0E4FE3" stroke-width="5" stroke-miterlimit="10" stroke-linecap="round" stroke-linejoin="round"/>
<path d="M119.718 37.2388H37.95" stroke="#0E4FE3" stroke-width="5" stroke-miterlimit="10" stroke-linecap="round" stroke-linejoin="round"/>
<path d="M29.5124 21.6587C27.3989 21.6587 25.6857 19.9454 25.6857 17.832V5.70224C25.6857 3.58875 27.3989 1.8755 29.5124 1.8755H30.3732C32.4866 1.8755 34.1999 3.58875 34.1999 5.70224V10.444" stroke="#0E4FE3" stroke-width="5" stroke-miterlimit="10" stroke-linecap="round" stroke-linejoin="round"/>
<path d="M97.6265 21.6587C95.513 21.6587 93.7998 19.9454 93.7998 17.832V5.70224C93.7998 3.58875 95.513 1.8755 97.6265 1.8755H98.4873C100.601 1.8755 102.314 3.58875 102.314 5.70224V10.444" stroke="#0E4FE3" stroke-width="5" stroke-miterlimit="10" stroke-linecap="round" stroke-linejoin="round"/>
<path d="M30.2457 60.9888H21.3172C20.8436 60.9888 20.3894 60.8006 20.0545 60.4657C19.7196 60.1308 19.5315 59.6766 19.5315 59.203V50.2746C19.5315 49.8009 19.7196 49.3467 20.0545 49.0118C20.3894 48.6769 20.8436 48.4888 21.3172 48.4888H30.2457C30.7193 48.4888 31.1735 48.6769 31.5084 49.0118C31.8433 49.3467 32.0315 49.8009 32.0315 50.2746V59.203C32.0315 59.6766 31.8433 60.1308 31.5084 60.4657C31.1735 60.8006 30.7193 60.9888 30.2457 60.9888Z" stroke="#0E4FE3" stroke-width="5" stroke-miterlimit="10" stroke-linecap="round" stroke-linejoin="round"/>
<path d="M55.7246 60.9888H46.7961C46.3225 60.9888 45.8683 60.8006 45.5334 60.4657C45.1985 60.1308 45.0104 59.6766 45.0104 59.203V50.2746C45.0104 49.8009 45.1985 49.3467 45.5334 49.0118C45.8683 48.6769 46.3225 48.4888 46.7961 48.4888H55.7246C56.1982 48.4888 56.6524 48.6769 56.9873 49.0118C57.3222 49.3467 57.5103 49.8009 57.5103 50.2746V59.203C57.5103 59.6766 57.3222 60.1308 56.9873 60.4657C56.6524 60.8006 56.1982 60.9888 55.7246 60.9888Z" stroke="#0E4FE3" stroke-width="5" stroke-miterlimit="10" stroke-linecap="round" stroke-linejoin="round"/>
<path d="M81.2035 60.9888H72.275C71.8014 60.9888 71.3472 60.8006 71.0123 60.4657C70.6774 60.1308 70.4893 59.6766 70.4893 59.203V50.2746C70.4893 49.8009 70.6774 49.3467 71.0123 49.0118C71.3472 48.6769 71.8014 48.4888 72.275 48.4888H81.2035C81.6771 48.4888 82.1313 48.6769 82.4662 49.0118C82.8011 49.3467 82.9892 49.8009 82.9892 50.2746V59.203C82.9892 59.6766 82.8011 60.1308 82.4662 60.4657C82.1313 60.8006 81.6771 60.9888 81.2035 60.9888Z" stroke="#0E4FE3" stroke-width="5" stroke-miterlimit="10" stroke-linecap="round" stroke-linejoin="round"/>
<path d="M106.682 60.9888H97.754C97.2804 60.9888 96.8262 60.8006 96.4913 60.4657C96.1564 60.1308 95.9683 59.6766 95.9683 59.203V50.2746C95.9683 49.8009 96.1564 49.3467 96.4913 49.0118C96.8262 48.6769 97.2804 48.4888 97.754 48.4888H106.682C107.156 48.4888 107.61 48.6769 107.945 49.0118C108.28 49.3467 108.468 49.8009 108.468 50.2746V59.203C108.468 59.6766 108.28 60.1308 107.945 60.4657C107.61 60.8006 107.156 60.9888 106.682 60.9888Z" stroke="#0E4FE3" stroke-width="5" stroke-miterlimit="10" stroke-linecap="round" stroke-linejoin="round"/>
<path d="M30.2457 84.1816H21.3172C20.8436 84.1816 20.3894 83.9935 20.0545 83.6586C19.7196 83.3237 19.5315 82.8695 19.5315 82.3959V73.4674C19.5315 72.9938 19.7196 72.5396 20.0545 72.2047C20.3894 71.8698 20.8436 71.6817 21.3172 71.6817H30.2457C30.7193 71.6817 31.1735 71.8698 31.5084 72.2047C31.8433 72.5396 32.0315 72.9938 32.0315 73.4674V82.3959C32.0315 82.8695 31.8433 83.3237 31.5084 83.6586C31.1735 83.9935 30.7193 84.1816 30.2457 84.1816Z" stroke="#0E4FE3" stroke-width="5" stroke-miterlimit="10" stroke-linecap="round" stroke-linejoin="round"/>
<path d="M55.7246 84.1816H46.7961C46.3225 84.1816 45.8683 83.9935 45.5334 83.6586C45.1985 83.3237 45.0104 82.8695 45.0104 82.3959V73.4674C45.0104 72.9938 45.1985 72.5396 45.5334 72.2047C45.8683 71.8698 46.3225 71.6817 46.7961 71.6817H55.7246C56.1982 71.6817 56.6524 71.8698 56.9873 72.2047C57.3222 72.5396 57.5103 72.9938 57.5103 73.4674V82.3959C57.5103 82.8695 57.3222 83.3237 56.9873 83.6586C56.6524 83.9935 56.1982 84.1816 55.7246 84.1816Z" stroke="#0E4FE3" stroke-width="5" stroke-miterlimit="10" stroke-linecap="round" stroke-linejoin="round"/>
<path d="M81.2035 84.1816H72.275C71.8014 84.1816 71.3472 83.9935 71.0123 83.6586C70.6774 83.3237 70.4893 82.8695 70.4893 82.3959V73.4674C70.4893 72.9938 70.6774 72.5396 71.0123 72.2047C71.3472 71.8698 71.8014 71.6817 72.275 71.6817H81.2035C81.6771 71.6817 82.1313 71.8698 82.4662 72.2047C82.8011 72.5396 82.9892 72.9938 82.9892 73.4674V82.3959C82.9892 82.8695 82.8011 83.3237 82.4662 83.6586C82.1313 83.9935 81.6771 84.1816 81.2035 84.1816Z" stroke="#0E4FE3" stroke-width="5" stroke-miterlimit="10" stroke-linecap="round" stroke-linejoin="round"/>
<path d="M106.682 84.7388H97.754C97.2804 84.7388 96.8262 84.5506 96.4913 84.2157C96.1564 83.8808 95.9683 83.4266 95.9683 82.953V74.0246C95.9683 73.5509 96.1564 73.0967 96.4913 72.7618C96.8262 72.4269 97.2804 72.2388 97.754 72.2388H106.682C107.156 72.2388 107.61 72.4269 107.945 72.7618C108.28 73.0967 108.468 73.5509 108.468 74.0246V82.953C108.468 83.4266 108.28 83.8808 107.945 84.2157C107.61 84.5506 107.156 84.7388 106.682 84.7388Z" stroke="#0E4FE3" stroke-width="5" stroke-miterlimit="10" stroke-linecap="round" stroke-linejoin="round"/>
<path d="M30.2457 107.375H21.3172C20.8436 107.375 20.3894 107.187 20.0545 106.852C19.7196 106.517 19.5315 106.063 19.5315 105.589V96.6608C19.5315 96.1872 19.7196 95.733 20.0545 95.3981C20.3894 95.0632 20.8436 94.875 21.3172 94.875H30.2457C30.7193 94.875 31.1735 95.0632 31.5084 95.3981C31.8433 95.733 32.0315 96.1872 32.0315 96.6608V105.589C32.0315 106.063 31.8433 106.517 31.5084 106.852C31.1735 107.187 30.7193 107.375 30.2457 107.375Z" stroke="#0E4FE3" stroke-width="5" stroke-miterlimit="10" stroke-linecap="round" stroke-linejoin="round"/>
<path d="M55.7246 107.375H46.7961C46.3225 107.375 45.8683 107.187 45.5334 106.852C45.1985 106.517 45.0104 106.063 45.0104 105.589V96.6608C45.0104 96.1872 45.1985 95.733 45.5334 95.3981C45.8683 95.0632 46.3225 94.875 46.7961 94.875H55.7246C56.1982 94.875 56.6524 95.0632 56.9873 95.3981C57.3222 95.733 57.5103 96.1872 57.5103 96.6608V105.589C57.5103 106.063 57.3222 106.517 56.9873 106.852C56.6524 107.187 56.1982 107.375 55.7246 107.375Z" stroke="#0E4FE3" stroke-width="5" stroke-miterlimit="10" stroke-linecap="round" stroke-linejoin="round"/>
<path d="M70.4893 99.2355V96.6608C70.4892 96.4263 70.5354 96.194 70.6251 95.9774C70.7149 95.7607 70.8464 95.5638 71.0122 95.398C71.178 95.2322 71.3749 95.1006 71.5916 95.0109C71.8083 94.9212 72.0405 94.875 72.275 94.875H81.2035C81.438 94.875 81.6702 94.9212 81.8869 95.0109C82.1036 95.1006 82.3004 95.2322 82.4663 95.398C82.6321 95.5638 82.7636 95.7607 82.8534 95.9774C82.9431 96.194 82.9893 96.4263 82.9892 96.6608V105.589C82.9892 105.824 82.943 106.056 82.8533 106.273C82.7635 106.489 82.632 106.686 82.4662 106.852C82.3004 107.018 82.1035 107.149 81.8869 107.239C81.6702 107.329 81.438 107.375 81.2035 107.375H72.275C71.8014 107.375 71.3472 107.187 71.0123 106.852C70.6774 106.517 70.4893 106.063 70.4893 105.589" stroke="#0E4FE3" stroke-width="5" stroke-miterlimit="10" stroke-linecap="round" stroke-linejoin="round"/>
</g>
</g>
<defs>
<clipPath id="clip0_40_592">
<rect width="128" height="128" fill="white"/>
</clipPath>
</defs>
</svg>
