<svg width="64" height="64" viewBox="0 0 64 64" fill="none" xmlns="http://www.w3.org/2000/svg">
<path fill-rule="evenodd" clip-rule="evenodd" d="M12 17.4145C11.4697 17.4145 10.9611 17.6251 10.586 18.0001L7.92604 20.6601L4.26904 17.7311L7.88604 10.7531C9.10412 11.5659 10.5357 11.9996 12 11.9996C13.4644 11.9996 14.8959 11.5659 16.114 10.7531L19.731 17.7311L16.074 20.6601L13.414 18.0001C13.039 17.6251 12.5304 17.4145 12 17.4145ZM12.882 4.5211L15.176 8.94409C14.2593 9.63026 13.1451 10.0011 12 10.0011C10.855 10.0011 9.74072 9.63026 8.82403 8.94409L11.112 4.5321C11.1975 4.37227 11.3245 4.23847 11.4797 4.14482C11.6349 4.05117 11.8125 4.00115 11.9938 4.00002C12.175 3.99889 12.3532 4.04671 12.5095 4.13842C12.6659 4.23013 12.7946 4.36234 12.882 4.5211ZM17 34.316V22.4311C17.114 22.3711 17.224 22.3011 17.324 22.2211L20 20.0781V31.3161L17 34.316Z" fill="#69DEEF" fill-opacity="0.6"/>
<path d="M22.884 38.334C22.6965 38.5215 22.4422 38.6268 22.177 38.6268C21.9118 38.6268 21.6575 38.5215 21.47 38.334L18.641 35.505L17.227 36.919L18.642 38.334C18.7349 38.4269 18.8086 38.5371 18.8589 38.6585C18.9093 38.7798 18.9352 38.9098 18.9352 39.0412C18.9353 39.1725 18.9094 39.3026 18.8592 39.424C18.809 39.5453 18.7354 39.6556 18.6425 39.7485C18.5497 39.8414 18.4394 39.9152 18.3181 39.9655C18.1968 40.0158 18.0667 40.0417 17.9354 40.0417C17.804 40.0418 17.674 40.016 17.5526 39.9657C17.4312 39.9155 17.3209 39.8419 17.228 39.749L15.812 38.333L14.4 39.748L14.955 40.302C15.0505 40.3943 15.1267 40.5046 15.1791 40.6266C15.2315 40.7486 15.2591 40.8799 15.2603 41.0126C15.2614 41.1454 15.2361 41.2771 15.1858 41.4C15.1356 41.5229 15.0613 41.6345 14.9674 41.7284C14.8735 41.8223 14.7619 41.8966 14.639 41.9469C14.5161 41.9971 14.3844 42.0224 14.2516 42.0213C14.1188 42.0201 13.9876 41.9925 13.8656 41.9401C13.7436 41.8877 13.6333 41.8115 13.541 41.716L12.986 41.162L10.1 44.046C10.399 44.016 10.7 44 11 44H32.776L49.756 27.0201C49.9434 26.8325 50.0487 26.5782 50.0487 26.3131C50.0487 26.0479 49.9434 25.7936 49.756 25.6061L39.856 15.7061C39.6685 15.5186 39.4141 15.4133 39.149 15.4133C38.8838 15.4133 38.6295 15.5186 38.442 15.7061L37.024 17.1241L39.852 19.9521C39.9475 20.0443 40.0237 20.1547 40.0761 20.2767C40.1285 20.3987 40.1561 20.5299 40.1572 20.6627C40.1584 20.7954 40.1331 20.9271 40.0828 21.05C40.0325 21.1729 39.9583 21.2846 39.8644 21.3785C39.7705 21.4724 39.6588 21.5466 39.5359 21.5969C39.413 21.6472 39.2814 21.6725 39.1486 21.6713C39.0158 21.6702 38.8846 21.6426 38.7626 21.5902C38.6406 21.5378 38.5302 21.4616 38.438 21.3661L35.61 18.5381L34.2 19.9501L35.613 21.3641C35.7107 21.4557 35.7891 21.5661 35.8433 21.6886C35.8976 21.8111 35.9266 21.9433 35.9288 22.0773C35.931 22.2113 35.9062 22.3443 35.856 22.4685C35.8057 22.5927 35.731 22.7056 35.6363 22.8004C35.5416 22.8952 35.4288 22.9699 35.3046 23.0203C35.1804 23.0706 35.0474 23.0955 34.9134 23.0934C34.7794 23.0913 34.6473 23.0623 34.5247 23.0082C34.4021 22.954 34.2917 22.8757 34.2 22.7781L32.786 21.3641L31.37 22.7781L34.2 25.6061C34.3876 25.7936 34.4931 26.0479 34.4932 26.3132C34.4933 26.5785 34.388 26.8329 34.2005 27.0206C34.013 27.2082 33.7586 27.3137 33.4933 27.3138C33.2281 27.3139 32.9736 27.2086 32.786 27.0211L29.958 24.1921L28.543 25.6071L29.958 27.0211C30.0535 27.1133 30.1297 27.2237 30.1821 27.3457C30.2345 27.4677 30.2621 27.5989 30.2633 27.7317C30.2644 27.8644 30.2391 27.9961 30.1888 28.119C30.1385 28.2419 30.0643 28.3536 29.9704 28.4475C29.8765 28.5413 29.7649 28.6156 29.642 28.6659C29.5191 28.7162 29.3874 28.7415 29.2546 28.7403C29.1218 28.7392 28.9906 28.7116 28.8686 28.6592C28.7466 28.6068 28.6362 28.5306 28.544 28.4351L27.129 27.0211L25.715 28.4351L28.543 31.2641C28.6385 31.3563 28.7147 31.4666 28.7671 31.5886C28.8195 31.7107 28.8471 31.8419 28.8483 31.9746C28.8494 32.1074 28.8241 32.2391 28.7738 32.362C28.7235 32.4849 28.6493 32.5966 28.5554 32.6904C28.4615 32.7843 28.3499 32.8586 28.227 32.9089C28.1041 32.9592 27.9724 32.9845 27.8396 32.9833C27.7068 32.9821 27.5756 32.9546 27.4536 32.9022C27.3316 32.8497 27.2213 32.7736 27.129 32.678L24.3 29.8491L22.886 31.2631L24.3 32.678C24.3955 32.7703 24.4717 32.8806 24.5241 33.0026C24.5765 33.1246 24.6041 33.2559 24.6053 33.3886C24.6064 33.5214 24.5811 33.6531 24.5308 33.776C24.4805 33.8989 24.4063 34.0105 24.3124 34.1044C24.2185 34.1983 24.1069 34.2726 23.984 34.3229C23.8611 34.3731 23.7294 34.3985 23.5966 34.3973C23.4638 34.3961 23.3326 34.3686 23.2106 34.3161C23.0886 34.2637 22.9783 34.1876 22.886 34.092L21.47 32.6771L20.055 34.091L22.884 36.92C23.0715 37.1076 23.1768 37.3619 23.1768 37.627C23.1768 37.8922 23.0715 38.1465 22.884 38.334Z" fill="#FFB0CD"/>
<path d="M5.16 46.166C5.16373 46.1583 5.16808 46.151 5.173 46.144L5.199 46.117L6.99899 44.317V38C6.99899 37.7348 7.10435 37.4805 7.29189 37.2929C7.47942 37.1054 7.73378 37 7.99899 37C8.26421 37 8.51856 37.1054 8.7061 37.2929C8.89363 37.4805 8.99899 37.7348 8.99899 38V42.316L14.999 36.316V22.3421C14.8761 22.2655 14.7621 22.1756 14.659 22.0741L12 19.4141L9.33999 22.0741C9.23671 22.176 9.12271 22.2666 8.99999 22.3441V34C8.99999 34.2653 8.89463 34.5196 8.7071 34.7071C8.51956 34.8947 8.26521 35 7.99999 35C7.73478 35 7.48042 34.8947 7.29289 34.7071C7.10535 34.5196 6.99999 34.2653 6.99999 34V22.4001C6.88653 22.3509 6.77804 22.2909 6.676 22.2211L4 20.0781V47.356C4.35 46.925 4.738 46.526 5.16 46.166Z" fill="#69DEEF" fill-opacity="0.6"/>
<path fill-rule="evenodd" clip-rule="evenodd" d="M52.9999 46H11C9.14348 46 7.363 46.7375 6.05025 48.0503C4.7375 49.363 4 51.1435 4 53C4 54.8565 4.7375 56.637 6.05025 57.9497C7.363 59.2625 9.14348 60 11 60H52.9999C54.8564 60 56.6369 59.2625 57.9497 57.9497C59.2624 56.637 59.9999 54.8565 59.9999 53C59.9999 51.1435 59.2624 49.363 57.9497 48.0503C56.6369 46.7375 54.8564 46 52.9999 46ZM7.46446 56.5355C8.40214 57.4732 9.67391 58 11 58C12.3261 58 13.5978 57.4732 14.5355 56.5355C15.4732 55.5979 16 54.3261 16 53C16 51.6739 15.4732 50.4022 14.5355 49.4645C13.5978 48.5268 12.3261 48 11 48C9.67391 48 8.40214 48.5268 7.46446 49.4645C6.52678 50.4022 6 51.6739 6 53C6 54.3261 6.52678 55.5979 7.46446 56.5355ZM49.4644 56.5355C50.4021 57.4732 51.6738 58 52.9999 58C54.326 58 55.5978 57.4732 56.5354 56.5355C57.4731 55.5979 57.9999 54.3261 57.9999 53C57.9999 51.6739 57.4731 50.4022 56.5354 49.4645C55.5978 48.5268 54.326 48 52.9999 48C51.6738 48 50.4021 48.5268 49.4644 49.4645C48.5267 50.4022 47.9999 51.6739 47.9999 53C47.9999 54.3261 48.5267 55.5979 49.4644 56.5355Z" fill="#B6C4FF"/>
<path d="M53 56C54.6568 56 56 54.6568 56 53C56 51.3431 54.6568 50 53 50C51.3431 50 50 51.3431 50 53C50 54.6568 51.3431 56 53 56Z" fill="#B6C4FF"/>
<path d="M11 56C12.6568 56 14 54.6568 14 53C14 51.3431 12.6568 50 11 50C9.34314 50 8 51.3431 8 53C8 54.6568 9.34314 56 11 56Z" fill="#B6C4FF"/>
</svg>
