<svg width="128" height="128" viewBox="0 0 128 128" fill="none" xmlns="http://www.w3.org/2000/svg">
<g clip-path="url(#clip0_40_587)">
<path d="M52.59 111.972L52.2137 113.809L52.5762 111.97C52.3347 111.922 52.0861 111.923 51.8448 111.971C51.6034 112.02 51.374 112.115 51.1695 112.253C50.9651 112.39 50.7896 112.566 50.6533 112.771C50.5169 112.976 50.4222 113.206 50.3746 113.447C50.327 113.689 50.3275 113.937 50.376 114.179C50.4245 114.42 50.52 114.649 50.6572 114.854C50.7944 115.058 50.9705 115.234 51.1754 115.37C51.3804 115.506 51.6102 115.601 51.8517 115.649C51.8545 115.65 51.8827 115.654 51.8857 115.655C52.005 115.678 52.1232 115.69 52.2402 115.69C53.122 115.69 53.9082 115.065 54.079 114.166C54.2745 113.149 53.6075 112.166 52.5897 111.972H52.59ZM66.9257 112.574L67.1122 114.439L66.9197 112.575C66.6749 112.601 66.4373 112.674 66.2207 112.791C66.0041 112.908 65.8126 113.066 65.6573 113.257C65.502 113.448 65.3858 113.668 65.3155 113.904C65.2451 114.14 65.2219 114.387 65.2472 114.632C65.2723 114.877 65.3454 115.115 65.4623 115.331C65.5792 115.548 65.7377 115.74 65.9287 115.895C66.1196 116.05 66.3394 116.167 66.5753 116.237C66.8113 116.308 67.0588 116.331 67.3037 116.306L67.3555 116.3C68.3807 116.18 69.1085 115.255 68.9942 114.23C68.879 113.205 67.9512 112.467 66.9257 112.574ZM59.748 112.811L59.7205 112.81C58.6875 112.763 57.8242 113.566 57.7772 114.6C57.7315 115.634 58.544 116.51 59.578 116.557C59.824 116.568 60.0698 116.531 60.3014 116.447C60.5329 116.363 60.7457 116.235 60.9276 116.069C61.1094 115.903 61.2567 115.702 61.3611 115.479C61.4655 115.256 61.525 115.015 61.536 114.769C61.5472 114.523 61.5099 114.277 61.4261 114.046C61.3423 113.814 61.2137 113.601 61.0477 113.419C60.8816 113.238 60.6814 113.09 60.4584 112.986C60.2354 112.881 59.994 112.822 59.748 112.811ZM45.664 110.067L45.6405 110.058C44.666 109.708 43.6035 110.218 43.254 111.193C42.9032 112.167 43.421 113.245 44.3955 113.596C44.8635 113.764 45.3791 113.739 45.8289 113.527C46.2786 113.315 46.6258 112.933 46.794 112.465C46.8774 112.233 46.9143 111.987 46.9026 111.742C46.891 111.496 46.831 111.254 46.726 111.032C46.6211 110.809 46.4733 110.609 46.291 110.443C46.1088 110.278 45.8957 110.15 45.664 110.067ZM74.002 111.262L74.4638 113.079L73.9962 111.264C73.5539 111.377 73.1682 111.648 72.9114 112.026C72.6546 112.404 72.5445 112.862 72.6017 113.315C72.6588 113.768 72.8794 114.185 73.2219 114.487C73.5644 114.789 74.0054 114.955 74.462 114.955C74.617 114.955 74.7745 114.936 74.9317 114.895C74.9392 114.893 74.9727 114.884 74.9815 114.882C75.9765 114.61 76.5585 113.588 76.293 112.591C76.0273 111.595 75.001 111.002 74.002 111.262ZM80.7803 108.898L81.5235 110.618L80.7745 108.9C80.3187 109.098 79.9605 109.47 79.7785 109.933C79.5965 110.395 79.6056 110.911 79.8037 111.367C79.9496 111.702 80.1902 111.987 80.4958 112.188C80.8015 112.388 81.1591 112.495 81.5245 112.494C81.7735 112.494 82.0283 112.443 82.2715 112.338C82.2793 112.334 82.3095 112.321 82.3175 112.318C83.2577 111.893 83.6727 110.791 83.253 109.849C82.833 108.905 81.7255 108.483 80.7805 108.898H80.7803ZM38.502 23.4252C38.8027 23.4252 39.1085 23.3527 39.3905 23.2024C39.6078 23.0865 39.8001 22.9289 39.9564 22.7387C40.1128 22.5484 40.2302 22.3292 40.3018 22.0936C40.3735 21.858 40.398 21.6106 40.374 21.3655C40.35 21.1204 40.278 20.8824 40.162 20.6652C40.0462 20.448 39.8887 20.2557 39.6986 20.0993C39.5084 19.943 39.2894 19.8256 39.0539 19.754C38.8183 19.6823 38.571 19.6578 38.326 19.6818C38.081 19.7057 37.8432 19.7777 37.626 19.8937L37.6035 19.9054C36.6905 20.3929 36.3555 21.5227 36.8427 22.4367C37.1787 23.0677 37.831 23.4252 38.502 23.4252ZM16.8135 44.3674C17.0316 44.4821 17.2701 44.5526 17.5155 44.5749C17.7609 44.5972 18.0082 44.5709 18.2434 44.4976C18.4786 44.4242 18.6971 44.3051 18.8862 44.1473C19.0754 43.9894 19.2315 43.7957 19.3457 43.5774L19.379 43.5119C19.4878 43.291 19.5519 43.0508 19.5678 42.805C19.5837 42.5592 19.551 42.3127 19.4715 42.0796C19.3921 41.8465 19.2674 41.6313 19.1048 41.4464C18.9421 41.2615 18.7446 41.1105 18.5235 41.0019C18.0805 40.7836 17.5691 40.7491 17.1008 40.9058C16.6324 41.0626 16.2449 41.3979 16.0225 41.8389C15.7925 42.2792 15.7467 42.7927 15.895 43.2668C16.0433 43.7409 16.3736 44.1367 16.8135 44.3674ZM14.1737 51.4212C14.373 51.4887 14.5752 51.5207 14.7755 51.5207C15.1674 51.5203 15.5494 51.3972 15.8678 51.1686C16.1862 50.94 16.425 50.6174 16.5507 50.2462L16.5752 50.1719C16.6477 49.9366 16.673 49.6894 16.6498 49.4442C16.6266 49.1991 16.5553 48.961 16.4401 48.7435C16.3248 48.5259 16.1678 48.3332 15.978 48.1764C15.7882 48.0195 15.5694 47.9017 15.334 47.8294C14.8625 47.6842 14.3528 47.7307 13.9153 47.9588C13.4778 48.1869 13.1479 48.5782 12.997 49.0479C12.8389 49.5187 12.8739 50.033 13.0946 50.4779C13.3152 50.9229 13.7033 51.2621 14.1737 51.4212ZM20.5125 37.8077C20.7115 37.9528 20.9372 38.0572 21.1766 38.115C21.416 38.1727 21.6645 38.1827 21.9078 38.1444C22.1511 38.106 22.3844 38.02 22.5944 37.8914C22.8044 37.7628 22.987 37.594 23.1317 37.3947L23.1562 37.3614C23.7577 36.5197 23.5615 35.3517 22.7217 34.7502C21.8807 34.1477 20.709 34.3409 20.1055 35.1809L21.6162 36.2922L20.0995 35.1887C19.807 35.5908 19.6863 36.0926 19.7638 36.5838C19.8413 37.0749 20.1104 37.5152 20.5125 37.8077ZM32.1367 27.4747C32.5302 27.4747 32.9267 27.3507 33.2657 27.0929C34.1015 26.4817 34.2822 25.3087 33.6707 24.4729C33.377 24.0718 32.936 23.8037 32.4447 23.7277C31.9533 23.6517 31.4519 23.774 31.0507 24.0677L31.004 24.1017C30.1797 24.7277 30.0155 25.9064 30.6415 26.7317C30.8163 26.9627 31.0422 27.15 31.3016 27.2789C31.5611 27.4079 31.8471 27.4749 32.1367 27.4747ZM12.5 79.8567C12.6177 80.2394 12.8549 80.5743 13.1769 80.8123C13.4988 81.0503 13.8886 81.1788 14.289 81.1789C14.4715 81.1789 14.6582 81.1514 14.8417 81.0949C15.8262 80.7932 16.3817 79.7502 16.0867 78.7639C15.9509 78.2899 15.6338 77.8885 15.2041 77.6467C14.7744 77.4048 14.2667 77.3421 13.791 77.4719C13.3113 77.6029 12.9032 77.919 12.6565 78.3508C12.4098 78.7826 12.3447 79.2947 12.4755 79.7744L12.5 79.8567ZM26.4725 32.4162C26.96 32.4162 27.4475 32.2277 27.8155 31.8527C28.5467 31.1202 28.5467 29.9327 27.8155 29.2014C27.6413 29.0273 27.4346 28.8891 27.207 28.7948C26.9795 28.7006 26.7356 28.652 26.4892 28.652C26.2429 28.652 25.999 28.7006 25.7715 28.7948C25.5439 28.8891 25.3372 29.0273 25.163 29.2014L25.1317 29.2327C24.4072 29.9719 24.4217 31.1574 25.1612 31.8819C25.5112 32.2255 25.9821 32.4175 26.4725 32.4162ZM14.5725 71.6819C14.4405 70.6632 13.51 69.9407 12.49 70.0619C11.9964 70.1212 11.5465 70.3739 11.2391 70.7646C10.9318 71.1553 10.792 71.652 10.8505 72.1457L10.8612 72.2207C10.998 73.1524 11.7977 73.8207 12.713 73.8207C12.8027 73.8207 12.8945 73.8137 12.9872 73.7999C14.0077 73.6514 14.716 72.7024 14.5725 71.6819ZM12.2167 66.3117C12.2362 66.3117 12.255 66.3127 12.2735 66.3127C12.7611 66.3124 13.2294 66.1221 13.5791 65.7823C13.9287 65.4425 14.1323 64.9798 14.1465 64.4924L14.1485 64.4124C14.1485 63.9152 13.951 63.4382 13.5993 63.0866C13.2477 62.735 12.7708 62.5374 12.2735 62.5374C11.7804 62.5372 11.307 62.7313 10.956 63.0777C10.6051 63.4241 10.4047 63.8949 10.3985 64.3879C10.3852 64.884 10.5692 65.365 10.91 65.7256C11.2509 66.0862 11.7208 66.297 12.2167 66.3117ZM12.628 58.7922C13.1176 58.8795 13.6219 58.7689 14.03 58.4847C14.4382 58.2005 14.7168 57.7659 14.8047 57.2764C14.8097 57.2492 14.8135 57.2219 14.8172 57.1944C14.8532 56.9508 14.8408 56.7025 14.7808 56.4637C14.7207 56.2249 14.6142 56.0003 14.4673 55.8027C14.3204 55.605 14.1359 55.4383 13.9245 55.312C13.7131 55.1858 13.4789 55.1024 13.2352 55.0667C12.2227 54.9162 11.2745 55.6124 11.1112 56.6222C10.9337 57.6397 11.6112 58.6097 12.628 58.7922ZM101.075 38.3997C101.247 38.6499 101.478 38.8544 101.746 38.9955C102.015 39.1365 102.315 39.2099 102.618 39.2092C102.984 39.2092 103.355 39.1017 103.68 38.8782C104.532 38.2922 104.748 37.1242 104.162 36.2707L102.604 37.3137L104.156 36.2619C104.018 36.0581 103.841 35.8835 103.635 35.748C103.43 35.6126 103.199 35.519 102.958 35.4725C102.716 35.4261 102.467 35.4278 102.226 35.4774C101.985 35.5271 101.756 35.6238 101.552 35.7619C101.348 35.9001 101.173 36.0771 101.038 36.2828C100.902 36.4884 100.809 36.7188 100.762 36.9606C100.716 37.2025 100.718 37.4511 100.767 37.6923C100.817 37.9335 100.914 38.1626 101.052 38.3664L101.075 38.3997ZM110.65 57.2677C110.406 57.2951 110.169 57.3705 109.953 57.4896C109.738 57.6087 109.548 57.7691 109.394 57.9616C109.241 58.1542 109.126 58.3751 109.058 58.6118C108.99 58.8484 108.969 59.0962 108.997 59.3409L109.007 59.4222C109.078 59.9144 109.341 60.3584 109.739 60.6567C110.137 60.955 110.637 61.0831 111.129 61.0129C111.617 60.9429 112.058 60.6836 112.356 60.291C112.654 59.8985 112.786 59.4043 112.723 58.9154C112.604 57.8889 111.673 57.1524 110.65 57.2679L110.65 57.2677ZM107.486 51.9767L107.494 52.0012C107.608 52.3897 107.845 52.7308 108.169 52.9736C108.493 53.2163 108.887 53.3477 109.292 53.3479C109.467 53.3479 109.645 53.3234 109.821 53.2707C110.058 53.2013 110.278 53.086 110.47 52.9315C110.661 52.7769 110.821 52.5861 110.939 52.3699C111.057 52.1537 111.131 51.9164 111.157 51.6715C111.183 51.4266 111.161 51.179 111.092 50.9427L111.084 50.9182C111.015 50.6818 110.899 50.4615 110.745 50.2697C110.59 50.078 110.399 49.9186 110.183 49.8006C109.967 49.6827 109.729 49.6086 109.485 49.5825C109.24 49.5565 108.992 49.5789 108.756 49.6487C108.279 49.7891 107.877 50.1132 107.639 50.5498C107.401 50.9864 107.346 51.4996 107.486 51.9767ZM104.838 44.9659C104.993 45.2819 105.234 45.5479 105.533 45.734C105.832 45.92 106.177 46.0187 106.529 46.0187C106.806 46.0187 107.087 45.9572 107.352 45.8262C108.28 45.3694 108.666 44.2522 108.208 43.3224L106.509 44.1144L108.206 43.3184C108.102 43.0955 107.954 42.8954 107.772 42.7295C107.591 42.5636 107.378 42.4351 107.146 42.3514C106.915 42.2677 106.669 42.2304 106.423 42.2417C106.177 42.253 105.936 42.3126 105.713 42.4172C105.263 42.6281 104.915 43.0093 104.745 43.4769C104.576 43.9445 104.6 44.4601 104.811 44.9104L104.838 44.9659ZM96.3525 32.5442C96.5268 32.7227 96.7351 32.8644 96.965 32.961C97.195 33.0576 97.442 33.1071 97.6915 33.1067C98.165 33.1067 98.6387 32.9289 99.004 32.5704C99.3562 32.2254 99.5583 31.7554 99.5663 31.2623C99.5743 30.7693 99.3876 30.293 99.0468 29.9367C98.8794 29.7561 98.6782 29.6102 98.4545 29.5073C98.2308 29.4045 97.9891 29.3467 97.7431 29.3373C97.497 29.3279 97.2516 29.367 97.0207 29.4525C96.7898 29.5379 96.578 29.668 96.3974 29.8353C96.2168 30.0026 96.0709 30.2039 95.968 30.4275C95.8652 30.6512 95.8074 30.893 95.798 31.139C95.7886 31.385 95.8277 31.6305 95.9132 31.8614C95.9986 32.0923 96.1287 32.3041 96.296 32.4847L96.3525 32.5442ZM111.26 65.0969C110.229 65.0704 109.367 65.8782 109.331 66.9084C109.319 67.1618 109.359 67.4149 109.448 67.6523C109.537 67.8898 109.674 68.1068 109.849 68.2901C110.024 68.4734 110.235 68.6192 110.468 68.7188C110.701 68.8184 110.952 68.8696 111.206 68.8694C112.194 68.8694 113.021 68.0969 113.076 67.0979L113.079 67.0207C113.109 65.9864 112.294 65.1272 111.26 65.0969H111.26ZM84.3625 23.3372L84.4072 23.3614C84.6762 23.505 84.9764 23.5801 85.2812 23.5802C85.6202 23.5799 85.9527 23.4878 86.2435 23.3136C86.5343 23.1394 86.7724 22.8897 86.9325 22.5909C87.421 21.6819 87.0772 20.5452 86.171 20.0529L85.2635 21.6934L86.165 20.0489C85.949 19.9306 85.7119 19.8559 85.4671 19.8292C85.2223 19.8025 84.9746 19.8243 84.7382 19.8933C84.5018 19.9623 84.2813 20.0772 84.0893 20.2315C83.8973 20.3857 83.7376 20.5762 83.6192 20.7922C83.122 21.6994 83.4543 22.8399 84.3623 23.3372H84.3625ZM90.704 27.4494L90.7335 27.4719C91.0589 27.7194 91.4565 27.8531 91.8652 27.8527C92.258 27.8528 92.6409 27.7297 92.9599 27.5006C93.2789 27.2715 93.5179 26.948 93.6433 26.5758C93.7686 26.2036 93.774 25.8014 93.6586 25.426C93.5432 25.0506 93.3128 24.7209 93 24.4834L92.987 24.4747C92.7918 24.3247 92.5689 24.2147 92.3311 24.1508C92.0933 24.087 91.8453 24.0706 91.6012 24.1027C91.357 24.1347 91.1216 24.2145 90.9084 24.3375C90.6951 24.4606 90.5082 24.6244 90.3583 24.8197C90.0555 25.2143 89.9218 25.713 89.9866 26.2061C90.0514 26.6992 90.3093 27.1464 90.7038 27.4494H90.704Z" fill="#0E4FE3" stroke="#0E4FE3"/>
<path d="M126.842 93.4823L118.041 84.6648C117.674 84.295 117.237 84.0018 116.756 83.8021C116.274 83.6025 115.758 83.5004 115.237 83.5018C114.716 83.5005 114.2 83.6026 113.719 83.8022C113.238 84.0019 112.801 84.2951 112.435 84.6648L112.23 84.8691L111.652 84.2908C110.949 83.5879 110.391 82.7534 110.011 81.8348C109.978 81.7148 109.933 81.5983 109.877 81.4873C109.587 80.6696 109.439 79.8081 109.44 78.9403V76.4461C109.711 76.5889 110.012 76.6633 110.317 76.6628C110.755 76.6623 111.18 76.5082 111.516 76.2274C111.853 75.9466 112.08 75.5569 112.159 75.1259C112.228 74.777 112.196 74.4157 112.067 74.0843C111.938 73.7528 111.718 73.4648 111.432 73.2538C111.146 73.0429 110.805 72.9176 110.451 72.8928C110.096 72.8679 109.741 72.9444 109.429 73.1134C109.313 70.4491 108.224 67.9609 106.33 66.0624L97.7908 57.5086C95.8748 55.5896 93.3271 54.5331 90.6171 54.5331C88.5196 54.5331 86.5213 55.1689 84.8358 56.3456L83.9296 55.4344V33.9892C83.93 31.4057 82.9911 28.9102 81.2878 26.9677C80.076 25.5864 79.4081 23.8113 79.4091 21.9737V20.4022H79.5378C81.7236 20.4022 83.5018 18.624 83.5018 16.4375V3.96499C83.5018 1.77825 81.7236 0 79.5378 0H44.5137C42.3282 0 40.5497 1.77825 40.5497 3.96499V16.4375C40.5497 18.624 42.3282 20.4025 44.5137 20.4025H44.8027V21.2245C44.8027 23.246 44.0164 25.1465 42.5897 26.5752L38.8097 30.3622C36.8037 32.3722 35.6992 35.0429 35.6992 37.8847V49.9814C35.6982 51.5692 36.0712 53.1349 36.7879 54.5516C34.3017 54.6951 31.9844 55.7314 30.2089 57.5086L21.67 66.0624C19.664 68.0724 18.5595 70.7441 18.5595 73.5849V78.9403C18.5595 80.9618 17.7745 82.8621 16.3477 84.2908L15.7762 84.8633C15.7735 84.8651 15.7712 84.8671 15.7695 84.8691L15.5665 84.6648C15.1994 84.295 14.7625 84.0018 14.2812 83.8021C13.7999 83.6025 13.2838 83.5004 12.7627 83.5018C12.2418 83.5004 11.7258 83.6025 11.2447 83.8022C10.7635 84.0018 10.3269 84.295 9.95998 84.6648L1.15725 93.4823C-0.385749 95.0281 -0.385749 97.5438 1.15725 99.0898L4.17199 102.108C4.34586 102.283 4.55238 102.421 4.77973 102.515C5.00709 102.61 5.25084 102.659 5.49704 102.659C5.74325 102.659 5.9871 102.611 6.21465 102.517C6.4422 102.423 6.649 102.285 6.82324 102.111C6.99755 101.937 7.13587 101.73 7.2303 101.503C7.32474 101.275 7.37344 101.032 7.37363 100.785C7.37381 100.539 7.32548 100.295 7.23139 100.067C7.13729 99.8397 6.99928 99.6328 6.82524 99.4585L3.81149 96.4393C3.77073 96.3985 3.74783 96.3432 3.74783 96.2856C3.74783 96.2279 3.77073 96.1726 3.81149 96.1318L12.6142 87.3143C12.6337 87.2947 12.6569 87.2792 12.6825 87.2685C12.708 87.2579 12.7354 87.2524 12.7631 87.2524C12.7908 87.2524 12.8182 87.2579 12.8437 87.2685C12.8693 87.2792 12.8925 87.2947 12.912 87.3143L14.4425 88.8476H14.4432L35.3387 109.779L37.6797 112.125C37.7647 112.21 37.7647 112.347 37.6797 112.432L28.8779 121.25C28.8584 121.27 28.8351 121.285 28.8094 121.296C28.7838 121.307 28.7562 121.312 28.7284 121.312C28.7006 121.312 28.6731 121.307 28.6475 121.296C28.6218 121.285 28.5985 121.27 28.5789 121.25L12.134 104.776C11.9601 104.602 11.7536 104.463 11.5262 104.369C11.2988 104.274 11.055 104.226 10.8088 104.225C10.5626 104.225 10.3187 104.273 10.0911 104.367C9.86353 104.461 9.65672 104.599 9.48248 104.773C9.30811 104.947 9.16971 105.154 9.07518 105.381C8.98066 105.609 8.93187 105.853 8.93159 106.099C8.93131 106.345 8.97955 106.589 9.07356 106.817C9.16757 107.045 9.3055 107.251 9.47948 107.426L25.9257 123.899C26.6737 124.649 27.6699 125.062 28.7294 125.062C29.2503 125.064 29.7662 124.961 30.2473 124.762C30.7284 124.562 31.165 124.269 31.5319 123.899L40.3339 115.082C41.8769 113.537 41.8769 111.021 40.3339 109.475L40.2382 109.38L41.3487 108.267C42.6438 106.968 44.3685 106.186 46.1992 106.068C48.7757 105.901 51.2029 104.801 53.0261 102.973L61.1121 94.8691C63.4441 94.2566 65.2596 92.3573 65.7529 89.9783C66.6087 90.3861 67.5449 90.5973 68.4929 90.5966C72.0194 90.5966 74.8886 87.7243 74.8886 84.1931V79.7411C75.7189 80.1205 76.6212 80.3167 77.5341 80.3161C81.0603 80.3161 83.9286 77.4441 83.9286 73.9129V60.7509L89.6961 66.5466C89.8701 66.722 90.0772 66.861 90.3054 66.9558C90.5336 67.0505 90.7783 67.0991 91.0253 67.0986C91.2709 67.099 91.5142 67.0509 91.7413 66.9573C91.9683 66.8636 92.1747 66.7261 92.3486 66.5526C92.7009 66.2018 92.8995 65.7253 92.9005 65.2281C92.9016 64.7308 92.7051 64.2535 92.3543 63.9011L87.5458 59.0691C88.4865 58.5514 89.5433 58.281 90.6171 58.2831C92.3241 58.2831 93.9296 58.9491 95.1366 60.1591L103.676 68.7116C104.974 70.0136 105.69 71.7441 105.69 73.5849V78.9403C105.69 81.9628 106.865 84.8036 108.998 86.9403L109.58 87.5233L106.86 90.2478L90.4111 106.725L89.4941 105.807C89.4841 105.798 89.4753 105.788 89.4656 105.779L89.3046 105.617C87.3651 103.674 84.7838 102.504 82.0438 102.326C80.3748 102.217 78.8027 101.504 77.6218 100.319L71.4609 94.1913C71.2863 94.0176 71.0791 93.8799 70.8513 93.7863C70.6236 93.6926 70.3795 93.6447 70.1332 93.6453C69.8869 93.6459 69.6431 93.6951 69.4158 93.7899C69.1885 93.8848 68.9821 94.0234 68.8084 94.1981C68.0789 94.9323 68.0819 96.1198 68.8164 96.8493L74.9736 102.973C76.7971 104.801 79.2247 105.901 81.8016 106.068C83.6317 106.186 85.3558 106.968 86.6511 108.266L86.7421 108.357C86.7908 108.413 86.8426 108.465 86.8971 108.514L87.7616 109.379L87.6658 109.475C86.1228 111.021 86.1228 113.536 87.6658 115.082L96.4676 123.899C97.2166 124.649 98.2118 125.062 99.2713 125.062C99.7924 125.064 100.308 124.961 100.79 124.762C101.271 124.562 101.708 124.269 102.075 123.899L126.842 99.0886C128.385 97.5428 128.385 95.0281 126.842 93.4823ZM110.697 74.8379L110.662 74.8319L110.32 74.7626L110.697 74.8379ZM50.3722 100.323C49.1932 101.506 47.6235 102.218 45.9572 102.326C43.2168 102.503 40.635 103.673 38.6952 105.617L37.5887 106.725L36.5927 105.727C36.5802 105.715 36.5674 105.701 36.5547 105.689L18.4197 87.5233L19.002 86.9403C21.1347 84.8036 22.3095 81.9628 22.3095 78.9403V73.5849C22.3095 71.7441 23.0245 70.0136 24.3242 68.7119L32.8632 60.1591C34.0702 58.9491 35.6757 58.2831 37.3827 58.2831C38.4777 58.2831 39.5302 58.5584 40.4637 59.0751L35.6474 63.8994C35.2962 64.2513 35.0991 64.7282 35.0995 65.2254C35.0998 65.7226 35.2977 66.1993 35.6494 66.5506C35.8234 66.7246 36.03 66.8626 36.2573 66.9566C36.4847 67.0506 36.7284 67.0989 36.9744 67.0986C37.221 67.0989 37.4652 67.0504 37.6929 66.9561C37.9207 66.8617 38.1276 66.7232 38.3017 66.5486L44.0547 60.7851V84.1931C44.0547 87.7243 46.9237 90.5966 50.4501 90.5966C51.4441 90.5966 52.3856 90.3681 53.2254 89.9616C53.6064 91.8201 54.7939 93.3866 56.4031 94.2791L50.3722 100.323ZM80.1796 73.9139C80.1796 75.3769 78.9921 76.5673 77.5341 76.5673C76.0751 76.5673 74.8886 75.3769 74.8886 73.9139V52.9989C74.8886 52.5016 74.6911 52.0247 74.3394 51.6731C73.9878 51.3214 73.5109 51.1239 73.0136 51.1239C72.5163 51.1239 72.0394 51.3214 71.6878 51.6731C71.3362 52.0247 71.1386 52.5016 71.1386 52.9989V84.1941C71.1386 85.6571 69.9521 86.8466 68.4931 86.8466C67.1834 86.8466 66.0966 85.8876 65.8866 84.6326V52.9776C65.8869 52.6503 65.8014 52.3286 65.6387 52.0446C65.476 51.7606 65.2417 51.5241 64.9592 51.3588C64.6768 51.1934 64.3559 51.1049 64.0286 51.1021C63.7013 51.0993 63.3789 51.1822 63.0936 51.3427C62.7928 51.5022 62.5412 51.7407 62.3657 52.0325C62.1902 52.3243 62.0975 52.6584 62.0976 52.9989V84.1931C62.0976 84.4316 62.1111 84.6648 62.1366 84.8963V88.6746C62.1366 90.1376 60.9501 91.3278 59.4911 91.3278C58.0331 91.3278 56.8466 90.1376 56.8466 88.6746V52.9549C56.8466 52.4575 56.649 51.9804 56.2973 51.6287C55.9456 51.277 55.4686 51.0794 54.9711 51.0794C54.4737 51.0794 53.9967 51.277 53.645 51.6287C53.2932 51.9804 53.0956 52.4575 53.0956 52.9549V84.1931C53.0956 85.6561 51.9091 86.8466 50.4511 86.8466C48.9922 86.8466 47.8057 85.6561 47.8057 84.1931V49.3154C47.8057 48.8181 47.6081 48.3412 47.2565 47.9896C46.9049 47.638 46.4279 47.4404 45.9307 47.4404C45.4334 47.4404 44.9565 47.638 44.6048 47.9896C44.2532 48.3412 44.0557 48.8181 44.0557 49.3154V55.7664C43.8961 55.8175 43.7443 55.8902 43.6044 55.9824C41.1794 55.0711 39.4492 52.7254 39.4492 49.9814V37.8847C39.4492 36.0439 40.1649 34.3134 41.4637 33.0117L45.2442 29.2244C47.3779 27.0879 48.5527 24.247 48.5527 21.2245V20.4025H52.3221C52.8194 20.4025 53.2963 20.2049 53.648 19.8533C53.9996 19.5017 54.1971 19.0247 54.1971 18.5275C54.1971 17.4915 53.3584 16.6525 52.3221 16.6525H44.5137C44.4568 16.6523 44.4024 16.6296 44.3623 16.5893C44.3222 16.5491 44.2997 16.4945 44.2997 16.4377V3.96499C44.2997 3.84674 44.3954 3.74999 44.5137 3.74999H79.5368C79.5939 3.74999 79.6486 3.77264 79.6889 3.81296C79.7292 3.85328 79.7518 3.90797 79.7518 3.96499V16.4375C79.7518 16.5567 79.6561 16.6525 79.5368 16.6525H61.1249C60.6276 16.6525 60.1507 16.85 59.7991 17.2016C59.4474 17.5533 59.2499 18.0302 59.2499 18.5275C59.2499 19.0247 59.4474 19.5017 59.7991 19.8533C60.1507 20.2049 60.6276 20.4025 61.1249 20.4025H75.6591V21.9737C75.6591 24.7237 76.6561 27.3749 78.4676 29.4412C79.5714 30.6991 80.1799 32.3156 80.1796 33.9892V73.9139ZM124.188 96.4393L99.4208 121.25C99.4016 121.27 99.3784 121.286 99.3526 121.297C99.3269 121.308 99.2992 121.313 99.2713 121.312C99.2434 121.313 99.2158 121.307 99.1901 121.297C99.1644 121.286 99.1411 121.27 99.1218 121.25L90.3201 112.432C90.2793 112.391 90.2564 112.336 90.2564 112.279C90.2564 112.221 90.2793 112.166 90.3201 112.125L91.7371 110.705L91.7381 110.704L106.116 96.3016L115.088 87.3141C115.107 87.2944 115.13 87.2787 115.156 87.2681C115.182 87.2574 115.209 87.2519 115.237 87.2519C115.264 87.2519 115.292 87.2574 115.317 87.2681C115.343 87.2787 115.366 87.2944 115.386 87.3141L124.188 96.1316C124.273 96.2166 124.273 96.3543 124.188 96.4391L124.188 96.4393Z" fill="#0E4FE3" stroke="#0E4FE3"/>
<path d="M50.4501 8.20117C49.3496 8.20117 48.4541 9.09867 48.4541 10.2012C48.4541 11.3047 49.3496 12.2012 50.4503 12.2012C51.5518 12.2012 52.4473 11.3047 52.4473 10.2012C52.4473 9.09867 51.5516 8.20117 50.4501 8.20117ZM115.851 93.6719C114.749 93.6719 113.854 94.5694 113.854 95.6719C113.854 96.7744 114.749 97.6719 115.851 97.6719C116.951 97.6719 117.847 96.7744 117.847 95.6719C117.847 94.5694 116.951 93.6719 115.851 93.6719ZM31.2461 112.801C31.2461 111.698 30.3506 110.801 29.2501 110.801C28.1486 110.801 27.2531 111.698 27.2531 112.801C27.2531 113.903 28.1486 114.801 29.2501 114.801C30.3506 114.801 31.2461 113.903 31.2461 112.801Z" fill="#0E4FE3" stroke="#0E4FE3"/>
</g>
<defs>
<clipPath id="clip0_40_587">
<rect width="128" height="128" fill="white"/>
</clipPath>
</defs>
</svg>
