<svg width="128" height="128" viewBox="0 0 128 128" fill="none" xmlns="http://www.w3.org/2000/svg">
<g clip-path="url(#clip0_40_584)">
<path d="M64 51.75C75.993 51.75 85.75 41.993 85.75 30C85.75 18.007 75.993 8.25 64 8.25C52.007 8.25 42.25 18.007 42.25 30C42.25 41.993 52.007 51.75 64 51.75ZM64 15.75C71.8575 15.75 78.25 22.1425 78.25 30C78.25 37.8575 71.8575 44.25 64 44.25C56.1425 44.25 49.75 37.8575 49.75 30C49.75 22.1425 56.1425 15.75 64 15.75ZM108 51.75C115.582 51.75 121.75 45.5817 121.75 38C121.75 30.4183 115.582 24.25 108 24.25C100.418 24.25 94.25 30.4183 94.25 38C94.25 45.5817 100.418 51.75 108 51.75ZM108 31.75C111.446 31.75 114.25 34.5537 114.25 38C114.25 41.4463 111.446 44.25 108 44.25C104.554 44.25 101.75 41.4463 101.75 38C101.75 34.5537 104.554 31.75 108 31.75ZM111.025 60.25H105.225C98.3903 60.25 92.4902 64.288 89.8018 70.088C84.2665 64.0455 76.3158 60.25 67.4948 60.25H60.5055C51.6845 60.25 43.7338 64.0455 38.1985 70.088C35.5098 64.288 29.6097 60.25 22.775 60.25H16.975C7.615 60.25 0 67.819 0 77.1225V104.425C0 108.464 3.2985 111.75 7.353 111.75H30.2847C30.6693 116.225 34.4323 119.75 39.0055 119.75H88.9948C93.5677 119.75 97.3307 116.225 97.7155 111.75H120.385C124.584 111.75 128 108.348 128 104.165V77.1225C128 67.819 120.385 60.25 111.025 60.25ZM7.5 77.1225C7.5 71.9545 11.7505 67.75 16.975 67.75H22.775C27.9995 67.75 32.25 71.9545 32.25 77.1225V79.6902C29.7283 86.2562 30.25 90.1913 30.25 104.25H7.5V77.1225ZM90.25 110.995C90.2497 111.328 90.1173 111.647 89.882 111.882C89.6466 112.117 89.3276 112.25 88.9948 112.25H39.0052C38.6725 112.25 38.3534 112.117 38.1181 111.882C37.8828 111.647 37.7504 111.328 37.75 110.995V90.5055C37.75 77.958 47.958 67.75 60.5052 67.75H67.4945C80.042 67.75 90.25 77.958 90.25 90.5052V110.995ZM120.5 104.165C120.5 104.294 121.898 104.25 97.75 104.25C97.75 90.0872 98.2678 86.2455 95.75 79.6902V77.1225C95.75 71.9545 100 67.75 105.225 67.75H111.025C116.25 67.75 120.5 71.9545 120.5 77.1225V104.165ZM20 51.75C27.5817 51.75 33.75 45.5817 33.75 38C33.75 30.4183 27.5817 24.25 20 24.25C12.4183 24.25 6.25 30.4183 6.25 38C6.25 45.5817 12.4183 51.75 20 51.75ZM20 31.75C23.4463 31.75 26.25 34.5537 26.25 38C26.25 41.4463 23.4463 44.25 20 44.25C16.5537 44.25 13.75 41.4463 13.75 38C13.75 34.5537 16.5537 31.75 20 31.75Z" fill="#0E4FE3"/>
</g>
<defs>
<clipPath id="clip0_40_584">
<rect width="128" height="128" fill="white"/>
</clipPath>
</defs>
</svg>
