<svg width="56" height="33" viewBox="0 0 56 33" fill="none" xmlns="http://www.w3.org/2000/svg">
<path d="M44.4212 1.94082C41.2436 -0.216701 36.886 0.563681 34.6747 3.69439L21.7506 22.1298C19.5579 25.2788 20.3477 29.5847 23.516 31.7698C26.7029 33.9365 31.0604 33.1561 33.2717 30.0254L46.1958 11.5808C48.3885 8.43177 47.5988 4.12589 44.4212 1.94082Z" fill="#F4F7FE"/>
<path d="M23.9246 1.60995C20.7377 -0.556758 16.3801 0.223624 14.1688 3.35433L1.24479 21.7989C-0.947934 24.948 -0.158182 29.2538 3.01012 31.4389C6.197 33.6056 10.5546 32.8252 12.7659 29.6945L25.6899 11.25C27.8826 8.09171 27.0929 3.79502 23.9246 1.60995Z" fill="#F4F7FE"/>
<path d="M49.0391 32.862C52.8414 32.862 55.9238 29.8162 55.9238 26.059C55.9238 22.3017 52.8414 19.2559 49.0391 19.2559C45.2367 19.2559 42.1543 22.3017 42.1543 26.059C42.1543 29.8162 45.2367 32.862 49.0391 32.862Z" fill="#F4F7FE"/>
</svg>
