<svg width="28" height="28" viewBox="0 0 28 28" fill="none" xmlns="http://www.w3.org/2000/svg">
<rect width="28" height="28" rx="4" fill="black"/>
<path d="M19.6129 8.83871H18.8387V7.29032C18.8383 6.94823 18.7022 6.62027 18.4603 6.37838C18.2184 6.13649 17.8905 6.00041 17.5484 6H10.3226C9.98049 6.00041 9.65253 6.13649 9.41064 6.37838C9.16874 6.62027 9.03267 6.94823 9.03226 7.29032V8.83871H8.25806C8.18962 8.83871 8.12398 8.8659 8.07559 8.91429C8.02719 8.96269 8 9.02833 8 9.09677V17.0968C8 17.1652 8.02719 17.2309 8.07559 17.2793C8.12398 17.3277 8.18962 17.3548 8.25806 17.3548H9.03226V20.7097C9.03267 21.0518 9.16874 21.3797 9.41064 21.6216C9.65253 21.8635 9.98049 21.9996 10.3226 22H17.5484C17.8905 21.9996 18.2184 21.8635 18.4603 21.6216C18.7022 21.3797 18.8383 21.0518 18.8387 20.7097V17.3548H19.6129C19.6813 17.3548 19.747 17.3277 19.7954 17.2793C19.8438 17.2309 19.871 17.1652 19.871 17.0968V9.09677C19.871 9.02833 19.8438 8.96269 19.7954 8.91429C19.747 8.8659 19.6813 8.83871 19.6129 8.83871ZM9.54839 7.29032C9.54859 7.08506 9.63022 6.88826 9.77537 6.74311C9.92051 6.59797 10.1173 6.51633 10.3226 6.51613H17.5484C17.7537 6.51633 17.9505 6.59797 18.0956 6.74311C18.2407 6.88826 18.3224 7.08506 18.3226 7.29032V8.83871H9.54839V7.29032ZM8.51613 9.35484H19.3548V10.9032H8.51613V9.35484ZM18.3226 20.7097C18.3224 20.9149 18.2407 21.1117 18.0956 21.2569C17.9505 21.402 17.7537 21.4837 17.5484 21.4839H10.3226C10.1173 21.4837 9.92051 21.402 9.77537 21.2569C9.63022 21.1117 9.54859 20.9149 9.54839 20.7097V19.4194H18.3226V20.7097ZM18.3226 18.9032H9.54839V17.3548H18.3226V18.9032ZM19.3548 16.8387H8.51613V11.4194H19.3548V16.8387Z" fill="white" stroke="white" stroke-width="0.2"/>
<path d="M18.5806 10.387C18.7232 10.387 18.8387 10.2714 18.8387 10.1289C18.8387 9.98639 18.7232 9.87085 18.5806 9.87085C18.4381 9.87085 18.3226 9.98639 18.3226 10.1289C18.3226 10.2714 18.4381 10.387 18.5806 10.387Z" fill="white" stroke="white" stroke-width="0.2"/>
<path d="M17.5484 10.387C17.6909 10.387 17.8065 10.2714 17.8065 10.1289C17.8065 9.98639 17.6909 9.87085 17.5484 9.87085C17.4059 9.87085 17.2903 9.98639 17.2903 10.1289C17.2903 10.2714 17.4059 10.387 17.5484 10.387Z" fill="white" stroke="white" stroke-width="0.2"/>
<path d="M16.5161 10.387C16.6586 10.387 16.7742 10.2714 16.7742 10.1289C16.7742 9.98639 16.6586 9.87085 16.5161 9.87085C16.3736 9.87085 16.2581 9.98639 16.2581 10.1289C16.2581 10.2714 16.3736 10.387 16.5161 10.387Z" fill="white" stroke="white" stroke-width="0.2"/>
<path d="M13.9355 21.2258C14.0886 21.2258 14.2383 21.1804 14.3656 21.0953C14.4929 21.0102 14.5921 20.8893 14.6507 20.7479C14.7093 20.6064 14.7247 20.4507 14.6948 20.3005C14.6649 20.1504 14.5912 20.0124 14.4829 19.9041C14.3746 19.7959 14.2367 19.7221 14.0865 19.6923C13.9363 19.6624 13.7807 19.6777 13.6392 19.7363C13.4977 19.7949 13.3768 19.8941 13.2917 20.0215C13.2067 20.1488 13.1613 20.2985 13.1613 20.4516C13.1615 20.6568 13.2431 20.8536 13.3883 20.9988C13.5334 21.1439 13.7302 21.2256 13.9355 21.2258ZM13.9355 20.1935C13.9865 20.1935 14.0364 20.2087 14.0788 20.237C14.1213 20.2654 14.1544 20.3057 14.1739 20.3528C14.1934 20.4 14.1985 20.4519 14.1886 20.5019C14.1786 20.552 14.154 20.598 14.1179 20.6341C14.0819 20.6702 14.0359 20.6947 13.9858 20.7047C13.9358 20.7146 13.8839 20.7095 13.8367 20.69C13.7896 20.6705 13.7492 20.6374 13.7209 20.595C13.6925 20.5525 13.6774 20.5026 13.6774 20.4516C13.6774 20.3831 13.7046 20.3175 13.753 20.2691C13.8014 20.2207 13.867 20.1935 13.9355 20.1935ZM16 20.7096H17.0322C17.1007 20.7096 17.1663 20.6825 17.2147 20.6341C17.2631 20.5857 17.2903 20.52 17.2903 20.4516C17.2903 20.3831 17.2631 20.3175 17.2147 20.2691C17.1663 20.2207 17.1007 20.1935 17.0322 20.1935H16C15.9315 20.1935 15.8659 20.2207 15.8175 20.2691C15.7691 20.3175 15.7419 20.3831 15.7419 20.4516C15.7419 20.52 15.7691 20.5857 15.8175 20.6341C15.8659 20.6825 15.9315 20.7096 16 20.7096ZM10.8387 20.7096H11.8709C11.9394 20.7096 12.005 20.6825 12.0534 20.6341C12.1018 20.5857 12.129 20.52 12.129 20.4516C12.129 20.3831 12.1018 20.3175 12.0534 20.2691C12.005 20.2207 11.9394 20.1935 11.8709 20.1935H10.8387C10.7702 20.1935 10.7046 20.2207 10.6562 20.2691C10.6078 20.3175 10.5806 20.3831 10.5806 20.4516C10.5806 20.52 10.6078 20.5857 10.6562 20.6341C10.7046 20.6825 10.7702 20.7096 10.8387 20.7096ZM14.9677 7.03223H12.9032C12.8348 7.03223 12.7691 7.05942 12.7207 7.10781C12.6723 7.15621 12.6451 7.22185 12.6451 7.29029C12.6451 7.35873 12.6723 7.42437 12.7207 7.47277C12.7691 7.52117 12.8348 7.54836 12.9032 7.54836H14.9677C15.0362 7.54836 15.1018 7.52117 15.1502 7.47277C15.1986 7.42437 15.2258 7.35873 15.2258 7.29029C15.2258 7.22185 15.1986 7.15621 15.1502 7.10781C15.1018 7.05942 15.0362 7.03223 14.9677 7.03223Z" fill="white" stroke="white" stroke-width="0.2"/>
<path d="M16 7.54836C16.1425 7.54836 16.2581 7.43282 16.2581 7.29029C16.2581 7.14777 16.1425 7.03223 16 7.03223C15.8575 7.03223 15.7419 7.14777 15.7419 7.29029C15.7419 7.43282 15.8575 7.54836 16 7.54836Z" fill="white" stroke="white" stroke-width="0.2"/>
<path d="M11.8175 15.4726C11.8662 15.5196 11.9314 15.5457 11.9991 15.5451C12.0667 15.5445 12.1315 15.5173 12.1793 15.4695C12.2271 15.4216 12.2543 15.3569 12.2549 15.2893C12.2555 15.2216 12.2295 15.1564 12.1824 15.1077L11.0746 13.9999L12.1824 12.892C12.2295 12.8433 12.2555 12.7781 12.2549 12.7105C12.2543 12.6428 12.2271 12.5781 12.1793 12.5302C12.1315 12.4824 12.0667 12.4552 11.9991 12.4547C11.9314 12.4541 11.8662 12.4801 11.8175 12.5271L10.5272 13.8174C10.4788 13.8658 10.4517 13.9314 10.4517 13.9999C10.4517 14.0683 10.4788 14.1339 10.5272 14.1823L11.8175 15.4726ZM15.6885 15.4726C15.7369 15.521 15.8025 15.5482 15.871 15.5482C15.9394 15.5482 16.005 15.521 16.0534 15.4726L17.3437 14.1823C17.3921 14.1339 17.4193 14.0683 17.4193 13.9999C17.4193 13.9314 17.3921 13.8658 17.3437 13.8174L16.0534 12.5271C16.0047 12.4801 15.9396 12.4541 15.8719 12.4547C15.8042 12.4552 15.7395 12.4824 15.6917 12.5302C15.6438 12.5781 15.6167 12.6428 15.6161 12.7105C15.6155 12.7781 15.6415 12.8433 15.6885 12.892L16.7964 13.9999L15.6885 15.1077C15.6401 15.1561 15.613 15.2218 15.613 15.2902C15.613 15.3586 15.6401 15.4242 15.6885 15.4726ZM13.0596 16.0437C13.0908 16.0571 13.1242 16.0641 13.1581 16.0645C13.192 16.0649 13.2257 16.0587 13.2571 16.046C13.2886 16.0334 13.3173 16.0148 13.3415 15.9911C13.3658 15.9674 13.3851 15.9392 13.3984 15.908L14.9468 12.2951C14.9727 12.2324 14.9728 12.162 14.9472 12.0993C14.9215 12.0365 14.8722 11.9863 14.8099 11.9596C14.7476 11.9329 14.6773 11.9318 14.6141 11.9565C14.551 11.9812 14.5001 12.0298 14.4725 12.0917L12.9241 15.7046C12.8972 15.7675 12.8963 15.8386 12.9217 15.9021C12.9471 15.9656 12.9967 16.0168 13.0596 16.0437Z" fill="white" stroke="white" stroke-width="0.2"/>
</svg>
