<svg width="66" height="64" viewBox="0 0 66 64" fill="none" xmlns="http://www.w3.org/2000/svg">
<path fill-rule="evenodd" clip-rule="evenodd" d="M52.5022 19.9688H13.5968C12.6764 19.9688 11.9294 20.7038 11.9294 21.6094V44.5781C11.9294 45.4837 12.6764 46.2188 13.5968 46.2188H52.5022C53.4226 46.2188 54.1696 45.4837 54.1696 44.5781V21.6094C54.1696 20.7038 53.4226 19.9688 52.5022 19.9688ZM27.0036 37.6995C27.655 37.0586 27.655 36.0195 27.0036 35.3797L24.6804 33.0938L27.0036 30.8089C27.655 30.168 27.655 29.1289 27.0036 28.4891C26.3522 27.8481 25.2962 27.8481 24.6448 28.4891L21.1434 31.9344C20.4931 32.5742 20.4931 33.6133 21.1434 34.2542L24.6448 37.6995C24.9705 38.02 25.3974 38.1797 25.8242 38.1797C26.2511 38.1797 26.6779 38.02 27.0036 37.6995ZM33.1051 39.5119L36.2253 27.4872C36.4532 26.61 35.9141 25.7164 35.0226 25.4922C34.1276 25.2623 33.2134 25.8117 32.9939 26.6756L29.8737 38.7003C29.6459 39.5775 30.185 40.4711 31.0765 40.6953C31.9446 40.9263 32.8908 40.3813 33.1051 39.5119ZM41.4542 37.6995L44.9557 34.2542C45.606 33.6133 45.606 32.5742 44.9557 31.9333L41.4542 28.488C40.8028 27.8481 39.7468 27.8481 39.0954 28.488C38.4451 29.1289 38.4451 30.168 39.0954 30.8089L41.4186 33.0938L39.0954 35.3786C38.4451 36.0195 38.4451 37.0586 39.0954 37.6995C39.4211 38.02 39.848 38.1797 40.2748 38.1797C40.7017 38.1797 41.1285 38.02 41.4542 37.6995Z" fill="#B6C4FF"/>
<path d="M49.9456 8.4625C49.9456 6.00156 47.9114 4 45.4103 4H20.6887C18.1877 4 16.1535 6.00156 16.1535 8.4625V10.1195H49.9456V8.4625Z" fill="#69DEEF"/>
<path fill-rule="evenodd" clip-rule="evenodd" d="M16.1535 55.5375C16.1535 57.9984 18.1877 60 20.6887 60H45.4103C47.9114 60 49.9456 57.9984 49.9456 55.5375V49.5H16.1535V55.5375ZM35.8841 52.3438H30.215C29.2946 52.3438 28.5476 53.0788 28.5476 53.9844C28.5476 54.89 29.2946 55.625 30.215 55.625H35.8841C36.8044 55.625 37.5514 54.89 37.5514 53.9844C37.5514 53.0788 36.8044 52.3438 35.8841 52.3438Z" fill="#FFB0CD"/>
<path d="M16.1535 13.4008H49.9456V16.6875H16.1535V13.4008Z" fill="#B6C4FF"/>
</svg>
