<svg width="64" height="61" viewBox="0 0 64 61" fill="none" xmlns="http://www.w3.org/2000/svg">
<path d="M40.3488 26.9219C40.4655 26.0258 40.4422 25.1171 40.2797 24.2283C40.2461 24.0451 40.2584 23.8564 40.3157 23.6792C40.373 23.502 40.4734 23.3417 40.6079 23.2129L41.3252 22.5246L40.675 21.0386L39.6865 21.1112C39.4969 21.1251 39.3069 21.0908 39.1342 21.0114C38.9615 20.9321 38.8116 20.8104 38.6986 20.6576C38.1691 19.9408 37.5188 19.3217 36.7767 18.8281C36.6179 18.7221 36.4886 18.5774 36.401 18.4077C36.3135 18.238 36.2704 18.0488 36.276 17.8579L36.3051 16.8717L34.7993 16.29L34.1639 17.0272C34.0421 17.1683 33.8872 17.2769 33.713 17.3434C33.5389 17.4099 33.351 17.4322 33.1661 17.4081C32.2699 17.2912 31.3609 17.3146 30.4718 17.4775C30.2887 17.5113 30.1 17.499 29.9227 17.4417C29.7455 17.3844 29.5852 17.2839 29.4565 17.1493L28.7683 16.4319L27.2818 17.0822L27.3544 18.0701C27.3685 18.2597 27.3343 18.4497 27.2551 18.6224C27.1759 18.7952 27.0542 18.9451 26.9014 19.0581C26.1843 19.5876 25.5648 20.2379 25.0707 20.9798C24.9643 21.1381 24.8196 21.267 24.6501 21.3545C24.4806 21.4421 24.2918 21.4854 24.1011 21.4806L23.1143 21.4515L22.5332 22.9577L23.2704 23.5933C23.4114 23.7151 23.5201 23.87 23.5866 24.0442C23.6531 24.2183 23.6753 24.4062 23.6513 24.5911C23.5347 25.4871 23.5581 26.3958 23.7207 27.2847C23.7543 27.4678 23.7419 27.6565 23.6846 27.8337C23.6273 28.0109 23.5269 28.1711 23.3925 28.3L22.6751 28.9878L23.3254 30.4747L24.3139 30.4023C24.5034 30.3886 24.6933 30.423 24.866 30.5022C25.0387 30.5815 25.1886 30.7031 25.3018 30.8557C25.8315 31.5723 26.4817 32.1913 27.2235 32.6852C27.3823 32.7912 27.5115 32.9357 27.5992 33.1053C27.6868 33.2749 27.7298 33.464 27.7243 33.6549L27.6952 34.6412L29.201 35.2227L29.8364 34.4856C29.9583 34.3445 30.1132 34.2358 30.2873 34.1693C30.4615 34.1029 30.6494 34.0806 30.8342 34.1046C31.7303 34.2212 32.639 34.1975 33.5278 34.0343C33.711 34.0009 33.8996 34.0135 34.0768 34.0707C34.2539 34.128 34.4142 34.2282 34.5432 34.3624L35.2314 35.0805L36.7179 34.4296L36.6454 33.4416C36.6315 33.2521 36.6656 33.0622 36.7448 32.8894C36.824 32.7167 36.9456 32.5668 37.0983 32.4537C37.8152 31.9243 38.4343 31.2739 38.9278 30.5319C39.0334 30.3726 39.178 30.243 39.3479 30.1553C39.5177 30.0677 39.7071 30.025 39.8982 30.0312L40.8844 30.0603L41.4659 28.5545L40.7287 27.9185C40.5879 27.7968 40.4795 27.642 40.4132 27.468C40.3469 27.2941 40.3248 27.1064 40.3488 26.9219ZM32.0002 31.7996C28.6622 31.7996 25.9563 29.0939 25.9563 25.7559C25.9563 22.4185 28.6622 19.7128 32.0002 19.7128C35.3382 19.7128 38.0433 22.4185 38.0433 25.7558C38.0395 29.0922 35.3359 31.7958 32.0002 31.7996Z" fill="#69DEEF" fill-opacity="0.7"/>
<path d="M32.0001 21.9644C29.9061 21.9644 28.208 23.6619 28.208 25.7557C28.208 27.8494 29.9056 29.5478 32.0001 29.5478C34.0941 29.5478 35.7916 27.8503 35.7916 25.7558C35.7893 23.663 34.093 21.9665 32.0001 21.9644Z" fill="#FFB0CD"/>
<path fill-rule="evenodd" clip-rule="evenodd" d="M60.5159 21.5767C59.4242 20.478 58.1251 19.607 56.6941 19.0144C55.2631 18.4217 53.7286 18.1192 52.1797 18.1243C51.8719 18.1243 51.5547 18.1276 51.232 18.1441C50.6708 8.03285 42.3132 0.118414 32.186 0.107999C27.9897 0.0950973 23.9086 1.47999 20.5867 4.04411C17.5336 6.39578 15.2564 9.60953 14.0497 13.2696C5.94096 14.5967 -0.00928825 21.6085 0.000562924 29.8252C0.000562924 29.8396 0.000562924 29.8522 0.00112585 29.866V29.905C0.000562924 29.9226 0 29.9139 0 29.9314C0.0104141 37.415 6.08226 43.4746 13.5658 43.4708H25.6675V46.2854H20.8556C20.7112 46.2819 20.5675 46.3076 20.4332 46.361C20.2989 46.4144 20.1768 46.4944 20.0742 46.5961C19.9715 46.6979 19.8905 46.8193 19.836 46.9531C19.7815 47.087 19.7545 47.2304 19.7568 47.3749V52.124C19.0973 52.2979 18.4984 52.6499 18.0257 53.1415C17.4566 53.6994 17.0661 54.4137 16.9035 55.1938C16.741 55.9739 16.8137 56.7848 17.1126 57.5235C17.4113 58.2622 17.9227 58.8957 18.5818 59.3435C19.2409 59.7913 20.0181 60.0334 20.815 60.039C21.6118 60.0444 22.3922 59.8131 23.0574 59.3745C23.7226 58.9358 24.2426 58.3096 24.5515 57.5751C24.8604 56.8407 24.9444 56.031 24.7927 55.2488C24.641 54.4666 24.2605 53.747 23.6994 53.1812H23.7126C23.2267 52.6183 22.5713 52.3104 22.0084 52.124V48.5371H26.7538C27.0602 48.5304 27.3523 48.4059 27.5693 48.1895C27.7863 47.973 27.9116 47.6813 27.9191 47.3749V43.4708H30.8744V52.7745C28.9549 53.3346 27.7394 55.2213 28.0225 57.2008C28.3051 59.1799 30.0005 60.6504 32.0004 60.6504C33.9998 60.6504 35.6952 59.1797 35.9782 57.2008C36.2613 55.2213 35.0458 53.3346 33.1263 52.7744V43.4706H36.0816V47.3749C36.0891 47.6814 36.2144 47.9731 36.4314 48.1896C36.6484 48.406 36.9406 48.5305 37.247 48.5371H41.9923V52.124C41.4294 52.3104 40.774 52.6183 40.2881 53.1812H40.2947C38.7412 54.7595 38.7599 57.2982 40.3371 58.8527C41.9142 60.4079 44.4529 60.3909 46.0085 58.8148C47.565 57.2386 47.5495 54.7001 45.9752 53.1434C45.5027 52.651 44.9038 52.2983 44.244 52.124V47.3749C44.2463 47.2304 44.2193 47.087 44.1648 46.9531C44.1103 46.8193 44.0294 46.6978 43.9268 46.596C43.8241 46.4943 43.7019 46.4143 43.5676 46.361C43.4333 46.3076 43.2896 46.2819 43.1451 46.2854H38.3333V43.4708H50.4351C57.918 43.4746 63.9892 37.4154 64.0001 29.9324C64.0001 29.8467 63.9887 29.7616 63.965 29.6791C63.9072 26.6337 62.6708 23.7294 60.5159 21.5767ZM42.6991 31.6147L43.8535 28.6259C43.937 28.4094 43.951 28.1722 43.8946 27.9471C43.8382 27.7221 43.7136 27.52 43.538 27.3685L42.6446 26.5972C42.6974 25.8759 42.6787 25.1508 42.5886 24.4328L43.451 23.606C43.6173 23.4465 43.7306 23.2397 43.7756 23.0137C43.8207 22.7877 43.7953 22.5534 43.7029 22.3422L42.4182 19.4056C42.3251 19.1919 42.1678 19.0123 41.9682 18.8919C41.7685 18.7714 41.5364 18.716 41.3039 18.7332L40.1165 18.8207C39.6487 18.2654 39.1215 17.7631 38.5443 17.3227L38.58 16.1408C38.5871 15.9078 38.5216 15.6783 38.3925 15.4842C38.2635 15.2901 38.0773 15.1408 37.8598 15.0572L34.8709 13.9027C34.6543 13.8193 34.4171 13.8048 34.1919 13.8612C33.9667 13.9176 33.7644 14.0422 33.6126 14.2178L32.8419 15.1116C32.1201 15.0588 31.395 15.0776 30.677 15.1678L29.8502 14.3052C29.6906 14.139 29.4839 14.0257 29.2579 13.9807C29.0319 13.9356 28.7975 13.9611 28.5864 14.0535L25.6498 15.3381C25.4363 15.4314 25.2571 15.5887 25.1368 15.7882C25.0165 15.9877 24.9611 16.2196 24.9781 16.4519L25.0653 17.6393C24.5101 18.107 24.008 18.6342 23.568 19.2115L22.385 19.1769C22.1519 19.1697 21.9224 19.2352 21.7282 19.3642C21.534 19.4932 21.3846 19.6794 21.3009 19.897L20.1469 22.8859C20.0634 23.1025 20.0488 23.3395 20.1052 23.5647C20.1616 23.7898 20.2862 23.9921 20.4619 24.1437L21.3558 24.915C21.303 25.6363 21.3217 26.3611 21.4118 27.0787L20.5498 27.9062C20.3835 28.0657 20.2701 28.2724 20.225 28.4984C20.1798 28.7244 20.2052 28.9588 20.2975 29.17L21.5822 32.1064C21.6755 32.32 21.8328 32.4994 22.0324 32.6196C22.2321 32.7399 22.4641 32.7951 22.6965 32.7777L23.884 32.6905C24.3517 33.2457 24.8789 33.7478 25.4563 34.1879L25.4217 35.3708C25.4147 35.6038 25.4801 35.8332 25.609 36.0273C25.7379 36.2215 25.9238 36.3709 26.1412 36.4549L29.1301 37.6088C29.3467 37.6922 29.5839 37.7068 29.8091 37.6504C30.0344 37.594 30.2367 37.4695 30.3885 37.2938L31.1591 36.4C31.8805 36.4528 32.6053 36.434 33.3229 36.3439L34.1504 37.2058C34.3099 37.3722 34.5166 37.4856 34.7426 37.5308C34.9686 37.5759 35.203 37.5506 35.4141 37.4583L38.3506 36.1734C38.5641 36.0802 38.7433 35.9229 38.8635 35.7234C38.9838 35.5239 39.0391 35.292 39.0219 35.0597L38.9345 33.8718C39.4901 33.4045 39.9925 32.8775 40.4326 32.3002L41.6154 32.3349C41.8483 32.3412 42.0774 32.2754 42.2713 32.1464C42.4653 32.0175 42.6147 31.8318 42.6991 31.6147Z" fill="#B6C4FF"/>
</svg>
