<svg width="64" height="64" viewBox="0 0 64 64" fill="none" xmlns="http://www.w3.org/2000/svg">
<path d="M42.5123 39.4688L38.786 42.6768C38.2127 43.1741 37.8597 43.8784 37.8045 44.6353C37.7492 45.3923 37.9961 46.1404 38.4912 46.7157L38.7771 47.0463L48.812 58.6628L49.1158 59.0024C49.3599 59.2878 49.658 59.5221 49.993 59.6919C50.3279 59.8618 50.6931 59.9637 51.0676 59.9919C51.4421 60.0202 51.8185 59.9741 52.1751 59.8564C52.5318 59.7388 52.8617 59.5518 53.1458 59.3062L57.006 55.9553C57.2914 55.7112 57.5258 55.4131 57.6956 55.0781C57.8654 54.7431 57.9674 54.3779 57.9956 54.0034C58.0238 53.6289 57.9778 53.2526 57.8601 52.8959C57.7424 52.5393 57.5554 52.2094 57.3099 51.9253L57.006 51.5768L46.9712 39.9603L46.6763 39.6297C46.4327 39.3444 46.1348 39.1104 45.7999 38.9414C45.465 38.7723 45.0998 38.6715 44.7256 38.6449C44.3514 38.6183 43.9757 38.6664 43.6202 38.7864C43.2648 38.9063 42.9368 39.0958 42.6552 39.3437L42.5123 39.4688ZM25.4271 4.00105C36.6281 4.16011 44.4468 13.4926 44.3217 23.4515C44.261 28.2384 42.3469 32.6375 39.4294 35.9035L41.708 38.3876L37.9103 41.6581L37.9014 41.667L35.6853 39.1382C32.5582 41.2026 28.8927 42.3011 25.1456 42.297C14.471 42.2943 5.99453 33.6159 5.99989 23.1477C6.00614 12.4069 14.8123 3.85093 25.4271 4.00105ZM25.1501 38.6378C33.5408 38.6378 40.3319 31.8377 40.3319 23.447C40.3319 15.0653 33.5408 8.26519 25.1501 8.26519C16.7594 8.26519 9.95932 15.0653 9.95932 23.447C9.95932 31.8377 16.7594 38.6378 25.1501 38.6378Z" fill="#B6C4FF"/>
<path opacity="0.6" d="M31.7802 15.1279H29.0012V19.3545C29.0012 20.7306 27.5715 21.66 26.3116 21.0702L25.1499 20.5341L23.9972 21.0702C22.6658 21.6689 21.2986 20.677 21.2986 19.3545V15.1279H18.5196C17.0809 15.1279 15.9282 16.2896 15.9282 17.7193V29.1839C15.9282 30.6136 17.0809 31.7752 18.5196 31.7752H31.7802C33.21 31.7752 34.3716 30.6136 34.3716 29.1839V17.7193C34.3716 16.2896 33.21 15.1279 31.7802 15.1279ZM22.2905 29.0677H18.7698C18.3945 29.0677 18.0996 28.7728 18.0996 28.3975C18.0996 28.0312 18.3945 27.7273 18.7698 27.7273H22.2905C22.4682 27.7273 22.6387 27.7979 22.7644 27.9236C22.89 28.0493 22.9607 28.2198 22.9607 28.3975C22.9607 28.5753 22.89 28.7457 22.7644 28.8714C22.6387 28.9971 22.4682 29.0677 22.2905 29.0677ZM24.2027 26.3691H18.7698C18.3945 26.3691 18.0996 26.0653 18.0996 25.6989C18.0996 25.3236 18.3945 25.0287 18.7698 25.0287H24.2027C24.578 25.0287 24.8729 25.3236 24.8729 25.6989C24.8729 26.0653 24.578 26.3691 24.2027 26.3691Z" fill="#69DEEF"/>
<path d="M27.6623 15.1309V19.353C27.6623 19.4464 27.6388 19.5382 27.5939 19.6201C27.549 19.702 27.4842 19.7712 27.4055 19.8214C27.3268 19.8717 27.2367 19.9013 27.1435 19.9075C27.0503 19.9137 26.9571 19.8963 26.8724 19.857L25.3846 19.1662C25.3113 19.1322 25.2314 19.1145 25.1505 19.1145C25.0696 19.1145 24.9897 19.1322 24.9164 19.1662L23.4286 19.857C23.3439 19.8963 23.2507 19.9137 23.1575 19.9075C23.0643 19.9013 22.9742 19.8717 22.8955 19.8214C22.8168 19.7712 22.752 19.702 22.7071 19.6201C22.6622 19.5382 22.6387 19.4464 22.6387 19.353V15.1309H27.6623Z" fill="#FFB0CD"/>
</svg>
