<svg width="60" height="60" viewBox="0 0 60 60" fill="none" xmlns="http://www.w3.org/2000/svg">
<path d="M48.466 32.1308V27.8767C48.4658 27.6634 48.3906 27.4571 48.2537 27.2936C48.1167 27.1302 47.9267 27.0201 47.7168 26.9825L44.7672 26.4574C44.4001 24.9515 43.8166 23.4456 42.9224 22.0621L44.6504 19.5896C44.7728 19.4146 44.8297 19.2022 44.8111 18.9895C44.7925 18.7768 44.6996 18.5774 44.5488 18.4263L41.569 15.4475C41.4181 15.2967 41.219 15.2039 41.0065 15.1851C40.794 15.1664 40.5817 15.2229 40.4067 15.3449L37.9436 17.0644C36.5695 16.1891 35.0542 15.615 33.5577 15.2385L33.0241 12.2795C32.9863 12.0696 32.876 11.8797 32.7124 11.7429C32.5488 11.6061 32.3423 11.5312 32.129 11.5313L27.8683 11.5388C27.6558 11.5393 27.4502 11.6142 27.2872 11.7506C27.1242 11.8869 27.0142 12.0761 26.9761 12.2851L26.4424 15.2291C24.9366 15.6056 23.4589 16.2174 22.0848 17.0738L19.5935 15.328C19.4186 15.2055 19.2063 15.1485 18.9936 15.1669C18.7809 15.1853 18.5814 15.278 18.4302 15.4287L15.4467 18.4037C15.2967 18.5537 15.2038 18.7515 15.1842 18.9627C15.1646 19.1739 15.2195 19.3854 15.3394 19.5604L17.0683 22.0903C16.2307 23.455 15.6189 24.9044 15.2425 26.4291L12.2872 26.9703C12.0784 27.0088 11.8897 27.119 11.7538 27.282C11.6178 27.4449 11.5431 27.6503 11.5427 27.8625L11.5352 32.1204C11.5352 32.5628 11.8523 32.9411 12.2881 33.0164L15.2622 33.5341C15.6199 35.0494 16.2401 36.527 17.0777 37.9294L15.3582 40.3924C15.2361 40.5676 15.1796 40.7802 15.1985 40.9929C15.2174 41.2056 15.3106 41.4048 15.4617 41.5557L18.4396 44.5345C18.5908 44.6856 18.7903 44.7786 19.0032 44.7972C19.2162 44.8158 19.4288 44.7588 19.6039 44.6362L22.0848 42.8997C23.4777 43.7656 24.9648 44.3868 26.4801 44.7444L26.9902 47.7072C27.0655 48.143 27.4439 48.4621 27.8862 48.4621H32.1366C32.578 48.4621 32.9554 48.1458 33.0316 47.711L33.5587 44.735C35.0636 44.3585 36.5413 43.7656 37.9069 42.928L40.4086 44.639C40.769 44.8856 41.2556 44.8404 41.5643 44.5308L44.5479 41.5473C44.6992 41.3963 44.7926 41.1969 44.8115 40.984C44.8304 40.7711 44.7737 40.5583 44.6514 40.383L42.9224 37.9115C43.7695 36.5374 44.3813 35.0503 44.7483 33.5444L47.713 33.0268C48.1488 32.9505 48.466 32.5731 48.466 32.1308ZM36.3624 36.3397C32.8519 39.8691 27.1483 39.8409 23.6566 36.3397C20.1554 32.8385 20.1272 27.135 23.6472 23.6244C27.1295 20.1421 32.8519 20.1421 36.353 23.6432C39.8542 27.135 39.8542 32.8574 36.3624 36.3397Z" fill="black"/>
<path d="M54.1535 45.4615L50.6824 43.2441C50.5647 43.168 50.4816 43.0487 50.451 42.9119C50.4203 42.7751 50.4446 42.6318 50.5187 42.5128C56.2184 33.1481 54.7756 20.8384 46.9817 13.0445C39.0533 5.11607 26.4735 3.73254 17.0561 9.74666L18.0321 11.2761C18.0882 11.3641 18.1188 11.466 18.1203 11.5704C18.1219 11.6748 18.0944 11.7776 18.0408 11.8672C17.9873 11.9569 17.9099 12.0299 17.8173 12.0781C17.7247 12.1263 17.6204 12.1477 17.5163 12.1401L9.86831 11.5716C9.78088 11.5652 9.69616 11.5384 9.62091 11.4934C9.54566 11.4484 9.48195 11.3865 9.43487 11.3125C9.38779 11.2386 9.35864 11.1547 9.34974 11.0674C9.34084 10.9802 9.35244 10.8921 9.38361 10.8102L12.0998 3.64878C12.1368 3.55105 12.2003 3.46555 12.2831 3.40186C12.366 3.33816 12.4649 3.29879 12.5689 3.28814C12.6728 3.27749 12.7777 3.29599 12.8717 3.34156C12.9657 3.38714 13.0452 3.45799 13.1013 3.54619L14.257 5.36548C25.7027 -1.97005 41.0194 -0.284399 50.6655 9.36172C60.1591 18.8657 61.9088 33.8869 54.913 45.2892C54.8746 45.3507 54.8243 45.4039 54.7652 45.4458C54.7061 45.4877 54.6393 45.5176 54.5686 45.5336C54.4979 45.5496 54.4248 45.5514 54.3534 45.5391C54.282 45.5267 54.2147 45.5003 54.1535 45.4615Z" fill="#FFB0CD"/>
<path d="M48.466 32.1308V27.8767C48.4658 27.6634 48.3906 27.4571 48.2537 27.2936C48.1167 27.1302 47.9267 27.0201 47.7168 26.9825L44.7672 26.4574C44.4001 24.9515 43.8166 23.4456 42.9224 22.0621L44.6504 19.5896C44.7728 19.4146 44.8297 19.2022 44.8111 18.9895C44.7925 18.7768 44.6996 18.5774 44.5488 18.4263L41.569 15.4475C41.4181 15.2967 41.219 15.2039 41.0065 15.1851C40.794 15.1664 40.5817 15.2229 40.4067 15.3449L37.9436 17.0644C36.5695 16.1891 35.0542 15.615 33.5577 15.2385L33.0241 12.2795C32.9863 12.0696 32.876 11.8797 32.7124 11.7429C32.5488 11.6061 32.3423 11.5312 32.129 11.5313L27.8683 11.5388C27.6558 11.5393 27.4502 11.6142 27.2872 11.7506C27.1242 11.8869 27.0142 12.0761 26.9761 12.2851L26.4424 15.2291C24.9366 15.6056 23.4589 16.2174 22.0848 17.0738L19.5935 15.328C19.4186 15.2055 19.2063 15.1485 18.9936 15.1669C18.7809 15.1853 18.5814 15.278 18.4302 15.4287L15.4467 18.4037C15.2967 18.5537 15.2038 18.7515 15.1842 18.9627C15.1646 19.1739 15.2195 19.3854 15.3394 19.5604L17.0683 22.0903C16.2307 23.455 15.6189 24.9044 15.2425 26.4291L12.2872 26.9703C12.0784 27.0088 11.8897 27.119 11.7538 27.282C11.6178 27.4449 11.5431 27.6503 11.5427 27.8625L11.5352 32.1204C11.5352 32.5628 11.8523 32.9411 12.2881 33.0164L15.2622 33.5341C15.6199 35.0494 16.2401 36.527 17.0777 37.9294L15.3582 40.3924C15.2361 40.5676 15.1796 40.7802 15.1985 40.9929C15.2174 41.2056 15.3106 41.4048 15.4617 41.5557L18.4396 44.5345C18.5908 44.6856 18.7903 44.7786 19.0032 44.7972C19.2162 44.8158 19.4288 44.7588 19.6039 44.6362L22.0848 42.8997C23.4777 43.7656 24.9648 44.3868 26.4801 44.7444L26.9902 47.7072C27.0655 48.143 27.4439 48.4621 27.8862 48.4621H32.1366C32.578 48.4621 32.9554 48.1458 33.0316 47.711L33.5587 44.735C35.0636 44.3585 36.5413 43.7656 37.9069 42.928L40.4086 44.639C40.769 44.8856 41.2556 44.8404 41.5643 44.5308L44.5479 41.5473C44.6992 41.3963 44.7926 41.1969 44.8115 40.984C44.8304 40.7711 44.7737 40.5583 44.6514 40.383L42.9224 37.9115C43.7695 36.5374 44.3813 35.0503 44.7483 33.5444L47.713 33.0268C48.1488 32.9505 48.466 32.5731 48.466 32.1308ZM36.3624 36.3397C32.8519 39.8691 27.1483 39.8409 23.6566 36.3397C20.1554 32.8385 20.1272 27.135 23.6472 23.6244C27.1295 20.1421 32.8519 20.1421 36.353 23.6432C39.8542 27.135 39.8542 32.8574 36.3624 36.3397Z" fill="#B6C4FF"/>
<path d="M50.7963 49.4888L48.2203 56.7057C48.1853 56.8039 48.1237 56.8904 48.0424 56.9557C47.9611 57.0209 47.8632 57.0622 47.7598 57.0751C47.6563 57.088 47.5513 57.0719 47.4565 57.0286C47.3617 56.9853 47.2807 56.9165 47.2227 56.83L45.7432 54.6248C34.2985 61.9613 19.0119 60.2963 9.3667 50.6605C-0.1533 41.1311 -1.91612 26.1005 5.08435 14.701C5.12444 14.637 5.1768 14.5816 5.23841 14.5379C5.30003 14.4942 5.36967 14.4632 5.44334 14.4466C5.51701 14.4299 5.59324 14.4281 5.66764 14.441C5.74204 14.454 5.81313 14.4816 5.87682 14.5222L8.85752 16.4394C9.36105 16.7622 9.50129 17.4201 9.20199 17.9377C3.81188 27.2412 5.35541 39.2836 13.0495 46.9768C20.9366 54.8638 33.4448 56.2587 42.8406 50.3067L42.0971 49.2036C42.0389 49.1168 42.0061 49.0155 42.0022 48.9111C41.9984 48.8067 42.0236 48.7033 42.0752 48.6125C42.1268 48.5216 42.2026 48.4469 42.2943 48.3968C42.3859 48.3466 42.4897 48.3229 42.594 48.3283L50.2966 48.7368C50.6731 48.7575 50.9234 49.134 50.7963 49.4888Z" fill="#69DEEF" fill-opacity="0.7"/>
</svg>
