<svg width="64" height="64" viewBox="0 0 64 64" fill="none" xmlns="http://www.w3.org/2000/svg">
<path d="M14.707 27.707L13.293 26.293L25.293 14.293C25.4805 14.1055 25.7348 14.0002 26 14.0002C26.2651 14.0002 26.5194 14.1055 26.707 14.293L34 21.586L48.293 7.29297L49.707 8.70697L34.707 23.707C34.5194 23.8944 34.2651 23.9998 34 23.9998C33.7348 23.9998 33.4805 23.8944 33.293 23.707L26 16.414L14.707 27.707Z" fill="#B6C4FF"/>
<path d="M50 15H48V9H42V7H49C49.2652 7 49.5196 7.10536 49.7071 7.29289C49.8946 7.48043 50 7.73478 50 8V15ZM42 55V51C42 49.4087 41.3679 47.8826 40.2426 46.7574C39.1174 45.6321 37.5913 45 36 45H28C26.4087 45 24.8826 45.6321 23.7574 46.7574C22.6321 47.8826 22 49.4087 22 51V55C22 55 24 57 32 57C40 57 42 55 42 55Z" fill="#B6C4FF"/>
<path d="M32 44C35.3137 44 38 41.3137 38 38C38 34.6863 35.3137 32 32 32C28.6863 32 26 34.6863 26 38C26 41.3137 28.6863 44 32 44Z" fill="#B6C4FF"/>
<path d="M60.9999 48V52C60.9999 52 58.9999 54 50.9999 54C48.6463 54.0502 46.2954 53.8117 43.9999 53.29V51C43.9991 49.9452 43.7893 48.901 43.3825 47.9277C42.9757 46.9545 42.38 46.0716 41.6299 45.33C42.1266 44.3304 42.8924 43.4891 43.841 42.9008C44.7897 42.3126 45.8836 42.0006 46.9999 42H54.9999C56.5912 42 58.1173 42.6321 59.2425 43.7574C60.3677 44.8826 60.9999 46.4087 60.9999 48Z" fill="#FFB0CD"/>
<path d="M51 41C54.3137 41 57 38.3137 57 35C57 31.6863 54.3137 29 51 29C47.6863 29 45 31.6863 45 35C45 38.3137 47.6863 41 51 41Z" fill="#FFB0CD"/>
<path opacity="0.6" d="M22.37 45.33C21.6199 46.0716 21.0242 46.9545 20.6174 47.9277C20.2106 48.901 20.0007 49.9452 20 51V53.29C17.7044 53.8117 15.3536 54.0502 13 54C5 54 3 52 3 52V48C3 46.4087 3.63214 44.8826 4.75736 43.7574C5.88258 42.6321 7.4087 42 9 42H17C18.1163 42.0006 19.2102 42.3126 20.1589 42.9008C21.1075 43.4891 21.8733 44.3304 22.37 45.33Z" fill="#69DEEF"/>
<path opacity="0.6" d="M13 41C16.3137 41 19 38.3137 19 35C19 31.6863 16.3137 29 13 29C9.68629 29 7 31.6863 7 35C7 38.3137 9.68629 41 13 41Z" fill="#69DEEF"/>
</svg>
