<svg width="64" height="64" viewBox="0 0 64 64" fill="none" xmlns="http://www.w3.org/2000/svg">
<path d="M52.186 15.0698V22.8837C52.1833 23.7464 51.8394 24.5729 51.2294 25.1829C50.6194 25.7929 49.7929 26.1368 48.9302 26.1395H15.0698C14.2067 26.1382 13.3794 25.7947 12.7691 25.1844C12.1588 24.5741 11.8153 23.7468 11.814 22.8837V15.0698C11.8167 14.2071 12.1606 13.3806 12.7706 12.7706C13.3806 12.1606 14.2071 11.8167 15.0698 11.814H48.9302C49.7933 11.8153 50.6206 12.1588 51.2309 12.7691C51.8412 13.3794 52.1847 14.2067 52.186 15.0698Z" fill="#B6C4FF"/>
<path d="M30.0465 33.3023V48.9302C30.0465 50.7274 28.5879 52.186 26.7907 52.186H15.0698C13.2726 52.186 11.814 50.7274 11.814 48.9302V33.3023C11.814 31.5051 13.2726 30.0465 15.0698 30.0465H26.7907C28.5879 30.0465 30.0465 31.5051 30.0465 33.3023Z" fill="#FFB0CD"/>
<path fill-rule="evenodd" clip-rule="evenodd" d="M47.5489 7.33481C47.9153 7.70116 48.4121 7.90698 48.9302 7.90698H52.8372C54.6344 7.90698 56.093 9.36558 56.093 11.1628V15.0698C56.093 15.5879 56.2988 16.0847 56.6652 16.4511C57.0315 16.8174 57.5284 17.0233 58.0465 17.0233C58.5646 17.0233 59.0615 16.8174 59.4278 16.4511C59.7942 16.0847 60 15.5879 60 15.0698V11.1628C60 9.2631 59.2453 7.44122 57.9021 6.09793C56.5588 4.75465 54.7369 4 52.8372 4H48.9302C48.4121 4 47.9153 4.20581 47.5489 4.57216C47.1826 4.93851 46.9767 5.43539 46.9767 5.95349C46.9767 6.47159 47.1826 6.96846 47.5489 7.33481ZM47.5489 59.4278C47.9153 59.7942 48.4121 60 48.9302 60H52.8372C54.7369 60 56.5588 59.2453 57.9021 57.9021C59.2453 56.5588 60 54.7369 60 52.8372V48.9302C60 48.4121 59.7942 47.9153 59.4278 47.5489C59.0615 47.1826 58.5646 46.9767 58.0465 46.9767C57.5284 46.9767 57.0315 47.1826 56.6652 47.5489C56.2988 47.9153 56.093 48.4121 56.093 48.9302V52.8372C56.093 54.6344 54.6344 56.093 52.8372 56.093H48.9302C48.4121 56.093 47.9153 56.2988 47.5489 56.6652C47.1826 57.0315 46.9767 57.5284 46.9767 58.0465C46.9767 58.5646 47.1826 59.0615 47.5489 59.4278ZM16.4511 4.57216C16.0847 4.20581 15.5879 4 15.0698 4H11.1628C9.2631 4 7.44122 4.75465 6.09793 6.09793C4.75465 7.44122 4 9.2631 4 11.1628V15.0698C4 15.5879 4.20581 16.0847 4.57216 16.4511C4.93851 16.8174 5.43539 17.0233 5.95349 17.0233C6.47159 17.0233 6.96846 16.8174 7.33481 16.4511C7.70116 16.0847 7.90698 15.5879 7.90698 15.0698V11.1628C7.90698 9.36558 9.36558 7.90698 11.1628 7.90698H15.0698C15.5879 7.90698 16.0847 7.70116 16.4511 7.33481C16.8174 6.96846 17.0233 6.47159 17.0233 5.95349C17.0233 5.43539 16.8174 4.93851 16.4511 4.57216ZM16.4511 56.6652C16.0847 56.2988 15.5879 56.093 15.0698 56.093H11.1628C9.36558 56.093 7.90698 54.6344 7.90698 52.8372V48.9302C7.90698 48.4121 7.70116 47.9153 7.33481 47.5489C6.96846 47.1826 6.47159 46.9767 5.95349 46.9767C5.43539 46.9767 4.93851 47.1826 4.57216 47.5489C4.20581 47.9153 4 48.4121 4 48.9302V52.8372C4 54.7369 4.75465 56.5588 6.09793 57.9021C7.44122 59.2453 9.2631 60 11.1628 60H15.0698C15.5879 60 16.0847 59.7942 16.4511 59.4278C16.8174 59.0615 17.0233 58.5646 17.0233 58.0465C17.0233 57.5284 16.8174 57.0315 16.4511 56.6652ZM56.6652 20.2001C56.2988 20.5664 56.093 21.0633 56.093 21.5814V24.186C56.093 24.7041 56.2988 25.201 56.6652 25.5674C57.0315 25.9337 57.5284 26.1395 58.0465 26.1395C58.5646 26.1395 59.0615 25.9337 59.4278 25.5674C59.7942 25.201 60 24.7041 60 24.186V21.5814C60 21.0633 59.7942 20.5664 59.4278 20.2001C59.0615 19.8337 58.5646 19.6279 58.0465 19.6279C57.5284 19.6279 57.0315 19.8337 56.6652 20.2001ZM20.2001 7.33481C20.5664 7.70116 21.0633 7.90698 21.5814 7.90698H24.186C24.7041 7.90698 25.201 7.70116 25.5674 7.33481C25.9337 6.96846 26.1395 6.47159 26.1395 5.95349C26.1395 5.43539 25.9337 4.93851 25.5674 4.57216C25.201 4.20581 24.7041 4 24.186 4H21.5814C21.0633 4 20.5664 4.20581 20.2001 4.57216C19.8337 4.93851 19.6279 5.43539 19.6279 5.95349C19.6279 6.47159 19.8337 6.96846 20.2001 7.33481ZM4.57216 20.2001C4.20581 20.5664 4 21.0633 4 21.5814V24.186C4 24.7041 4.20581 25.201 4.57216 25.5674C4.93851 25.9337 5.43539 26.1395 5.95349 26.1395C6.47159 26.1395 6.96846 25.9337 7.33481 25.5674C7.70116 25.201 7.90698 24.7041 7.90698 24.186V21.5814C7.90698 21.0633 7.70116 20.5664 7.33481 20.2001C6.96846 19.8337 6.47159 19.6279 5.95349 19.6279C5.43539 19.6279 4.93851 19.8337 4.57216 20.2001ZM20.2001 59.4278C20.5664 59.7942 21.0633 60 21.5814 60H24.186C24.7041 60 25.201 59.7942 25.5674 59.4278C25.9337 59.0615 26.1395 58.5646 26.1395 58.0465C26.1395 57.5284 25.9337 57.0315 25.5674 56.6652C25.201 56.2988 24.7041 56.093 24.186 56.093H21.5814C21.0633 56.093 20.5664 56.2988 20.2001 56.6652C19.8337 57.0315 19.6279 57.5284 19.6279 58.0465C19.6279 58.5646 19.8337 59.0615 20.2001 59.4278ZM56.6652 29.3163C56.2988 29.6827 56.093 30.1796 56.093 30.6977V33.3023C56.093 33.8204 56.2988 34.3173 56.6652 34.6836C57.0315 35.05 57.5284 35.2558 58.0465 35.2558C58.5646 35.2558 59.0615 35.05 59.4278 34.6836C59.7942 34.3173 60 33.8204 60 33.3023V30.6977C60 30.1796 59.7942 29.6827 59.4278 29.3163C59.0615 28.95 58.5646 28.7442 58.0465 28.7442C57.5284 28.7442 57.0315 28.95 56.6652 29.3163ZM29.3163 7.33481C29.6827 7.70116 30.1796 7.90698 30.6977 7.90698H33.3023C33.8204 7.90698 34.3173 7.70116 34.6836 7.33481C35.05 6.96846 35.2558 6.47159 35.2558 5.95349C35.2558 5.43539 35.05 4.93851 34.6836 4.57216C34.3173 4.20581 33.8204 4 33.3023 4H30.6977C30.1796 4 29.6827 4.20581 29.3163 4.57216C28.95 4.93851 28.7442 5.43539 28.7442 5.95349C28.7442 6.47159 28.95 6.96846 29.3163 7.33481ZM4.57216 29.3163C4.20581 29.6827 4 30.1796 4 30.6977V33.3023C4 33.8204 4.20581 34.3173 4.57216 34.6836C4.93851 35.05 5.43539 35.2558 5.95349 35.2558C6.47159 35.2558 6.96846 35.05 7.33481 34.6836C7.70116 34.3173 7.90698 33.8204 7.90698 33.3023V30.6977C7.90698 30.1796 7.70116 29.6827 7.33481 29.3163C6.96846 28.95 6.47159 28.7442 5.95349 28.7442C5.43539 28.7442 4.93851 28.95 4.57216 29.3163ZM29.3163 59.4278C29.6827 59.7942 30.1796 60 30.6977 60H33.3023C33.8204 60 34.3173 59.7942 34.6836 59.4278C35.05 59.0615 35.2558 58.5646 35.2558 58.0465C35.2558 57.5284 35.05 57.0315 34.6836 56.6652C34.3173 56.2988 33.8204 56.093 33.3023 56.093H30.6977C30.1796 56.093 29.6827 56.2988 29.3163 56.6652C28.95 57.0315 28.7442 57.5284 28.7442 58.0465C28.7442 58.5646 28.95 59.0615 29.3163 59.4278ZM56.6652 38.4326C56.2988 38.799 56.093 39.2959 56.093 39.814V42.4186C56.093 42.9367 56.2988 43.4336 56.6652 43.7999C57.0315 44.1663 57.5284 44.3721 58.0465 44.3721C58.5646 44.3721 59.0615 44.1663 59.4278 43.7999C59.7942 43.4336 60 42.9367 60 42.4186V39.814C60 39.2959 59.7942 38.799 59.4278 38.4326C59.0615 38.0663 58.5646 37.8605 58.0465 37.8605C57.5284 37.8605 57.0315 38.0663 56.6652 38.4326ZM38.4326 7.33481C38.799 7.70116 39.2959 7.90698 39.814 7.90698H42.4186C42.9367 7.90698 43.4336 7.70116 43.7999 7.33481C44.1663 6.96846 44.3721 6.47159 44.3721 5.95349C44.3721 5.43539 44.1663 4.93851 43.7999 4.57216C43.4336 4.20581 42.9367 4 42.4186 4H39.814C39.2959 4 38.799 4.20581 38.4326 4.57216C38.0663 4.93851 37.8605 5.43539 37.8605 5.95349C37.8605 6.47159 38.0663 6.96846 38.4326 7.33481ZM4.57216 38.4326C4.20581 38.799 4 39.2959 4 39.814V42.4186C4 42.9367 4.20581 43.4336 4.57216 43.7999C4.93851 44.1663 5.43539 44.3721 5.95349 44.3721C6.47159 44.3721 6.96846 44.1663 7.33481 43.7999C7.70116 43.4336 7.90698 42.9367 7.90698 42.4186V39.814C7.90698 39.2959 7.70116 38.799 7.33481 38.4326C6.96846 38.0663 6.47159 37.8605 5.95349 37.8605C5.43539 37.8605 4.93851 38.0663 4.57216 38.4326ZM38.4326 59.4278C38.799 59.7942 39.2959 60 39.814 60H42.4186C42.9367 60 43.4336 59.7942 43.7999 59.4278C44.1663 59.0615 44.3721 58.5646 44.3721 58.0465C44.3721 57.5284 44.1663 57.0315 43.7999 56.6652C43.4336 56.2988 42.9367 56.093 42.4186 56.093H39.814C39.2959 56.093 38.799 56.2988 38.4326 56.6652C38.0663 57.0315 37.8605 57.5284 37.8605 58.0465C37.8605 58.5646 38.0663 59.0615 38.4326 59.4278Z" fill="#B6C4FF"/>
<path d="M52.186 33.3023V48.9302C52.186 50.7274 50.7274 52.186 48.9302 52.186H37.2093C35.4121 52.186 33.9535 50.7274 33.9535 48.9302V33.3023C33.9535 31.5051 35.4121 30.0465 37.2093 30.0465H48.9302C50.7274 30.0465 52.186 31.5051 52.186 33.3023Z" fill="#69DEEF" fill-opacity="0.7"/>
</svg>
