<svg width="28" height="28" viewBox="0 0 28 28" fill="none" xmlns="http://www.w3.org/2000/svg">
<rect width="28" height="28" rx="4" fill="black"/>
<g clip-path="url(#clip0_443_29)">
<path d="M7.75 7.5C7.6837 7.5 7.62011 7.52634 7.57322 7.57322C7.52634 7.62011 7.5 7.6837 7.5 7.75V20.25C7.5 20.388 7.612 20.5 7.75 20.5H13.25V7.5H7.75ZM14.75 7.5V13.25H20.5V7.75C20.5 7.6837 20.4737 7.62011 20.4268 7.57322C20.3799 7.52634 20.3163 7.5 20.25 7.5H14.75ZM20.5 14.75H14.75V20.5H20.25C20.3163 20.5 20.3799 20.4737 20.4268 20.4268C20.4737 20.3799 20.5 20.3163 20.5 20.25V14.75ZM6 7.75C6 6.784 6.784 6 7.75 6H20.25C21.216 6 22 6.784 22 7.75V20.25C22 20.7141 21.8156 21.1592 21.4874 21.4874C21.1592 21.8156 20.7141 22 20.25 22H7.75C7.28587 22 6.84075 21.8156 6.51256 21.4874C6.18437 21.1592 6 20.7141 6 20.25V7.75Z" fill="white"/>
</g>
<defs>
<clipPath id="clip0_443_29">
<rect width="16" height="16" fill="white" transform="translate(6 6)"/>
</clipPath>
</defs>
</svg>
