<svg width="64" height="64" viewBox="0 0 64 64" fill="none" xmlns="http://www.w3.org/2000/svg">
<path d="M49.77 41.9342H49.528L50.528 44.2325C50.5894 44.3737 50.6176 44.5273 50.6104 44.6812C50.6031 44.8351 50.5607 44.9852 50.4863 45.12C50.412 45.2548 50.3077 45.3707 50.1816 45.4585C50.0554 45.5463 49.9108 45.6039 49.759 45.6266L48.889 46.0632C48.6728 46.1716 48.503 46.3549 48.4111 46.5793C48.3191 46.8037 48.3113 47.0539 48.389 47.2836L49.46 50.5093C49.5176 50.682 49.6208 50.8357 49.7588 50.954C49.8967 51.0722 50.0641 51.1506 50.243 51.1807L53.111 51.6595C53.3055 51.6596 53.4957 51.7166 53.6584 51.8236C53.8211 51.9305 53.9492 52.0828 54.027 52.2617L55.654 55.9852H58.88C59.1609 56.0003 59.4364 55.9032 59.6462 55.7151C59.856 55.5271 59.9832 55.2634 60 54.9815C60 54.8021 59.9452 54.6269 59.843 54.4797L52.526 43.3694C52.22 42.9208 51.8082 42.5551 51.3274 42.3047C50.8466 42.0543 50.3116 41.9271 49.77 41.9342Z" fill="#B6C4FF"/>
<path d="M5.12 55.9852H9.346L15.471 41.9342H14.23C13.6876 41.9273 13.1519 42.0552 12.6707 42.3065C12.1895 42.5578 11.7777 42.9246 11.472 43.3744L4.164 54.4707C4.05809 54.6199 4.00081 54.7983 4 54.9815C4.01677 55.2634 4.14396 55.5271 4.3538 55.7151C4.56364 55.9032 4.83909 56.0003 5.12 55.9852Z" fill="#B6C4FF"/>
<path d="M5.12 57.9925C4.73723 57.9907 4.35789 57.92 4 57.7837V58.9961C4 59.2623 4.10536 59.5176 4.29289 59.7058C4.48043 59.894 4.73478 59.9998 5 59.9998H59C59.2652 59.9998 59.5196 59.894 59.7071 59.7058C59.8946 59.5176 60 59.2623 60 58.9961V57.7837C59.6421 57.92 59.2628 57.9907 58.88 57.9925H5.12Z" fill="#B6C4FF"/>
<path fill-rule="evenodd" clip-rule="evenodd" d="M41.474 12.8597C41.2403 12.9858 40.9663 13.0137 40.7122 12.9371C40.4581 12.8605 40.2447 12.6857 40.119 12.4512C39.9933 12.2167 39.9655 11.9416 40.0419 11.6866C40.1182 11.4316 40.2923 11.2174 40.526 11.0912L42.889 9.81761L32.237 4.05971C32.1642 4.02036 32.0827 3.99976 32 3.99976C31.9173 3.99976 31.8358 4.02036 31.763 4.05971L21.111 9.81761L23.474 11.0922C23.5897 11.1547 23.692 11.2394 23.7751 11.3416C23.8581 11.4437 23.9203 11.5613 23.9581 11.6876C23.9959 11.8139 24.0086 11.9464 23.9953 12.0776C23.9821 12.2088 23.9432 12.3361 23.881 12.4522C23.8188 12.5683 23.7343 12.671 23.6325 12.7543C23.5308 12.8377 23.4136 12.9001 23.2878 12.9381C23.162 12.976 23.0299 12.9887 22.8992 12.9754C22.7685 12.9621 22.6417 12.9231 22.526 12.8607L20 11.4967V22.9653C20 23.0559 20.0245 23.1448 20.0708 23.2225C20.1171 23.3003 20.1835 23.364 20.263 23.4069L31 29.214V25.8759C31 25.6097 31.1054 25.3544 31.2929 25.1662C31.4804 24.978 31.7348 24.8723 32 24.8723C32.2652 24.8723 32.5196 24.978 32.7071 25.1662C32.8946 25.3544 33 25.6097 33 25.8759V29.214L43.737 23.4109C43.8171 23.3677 43.8839 23.3033 43.9302 23.2248C43.9766 23.1463 44.0007 23.0566 44 22.9653V11.4967L41.474 12.8597ZM33 17.4453L36.474 15.5695V15.5655C36.7077 15.4393 36.8818 15.2251 36.9581 14.9701C37.0345 14.7151 37.0067 14.44 36.881 14.2055C36.7553 13.971 36.5419 13.7962 36.2878 13.7196C36.0337 13.643 35.7597 13.6709 35.526 13.7971L32 15.704L28.474 13.8031C28.2403 13.6769 27.9663 13.6491 27.7122 13.7257C27.4581 13.8023 27.2447 13.9771 27.119 14.2116C26.9933 14.4461 26.9655 14.7211 27.0419 14.9761C27.1182 15.2312 27.2923 15.4453 27.526 15.5715L31 17.4453V19.854C31 20.1202 31.1054 20.3755 31.2929 20.5637C31.4804 20.7519 31.7348 20.8577 32 20.8577C32.2652 20.8577 32.5196 20.7519 32.7071 20.5637C32.8946 20.3755 33 20.1202 33 19.854V17.4453Z" fill="#69DEEF"/>
<path d="M18.8819 41.934H17.6539L11.5289 55.985H53.4689L52.4199 53.5833L49.9149 53.1617C49.3753 53.0736 48.8703 52.8384 48.455 52.4818C48.0397 52.1251 47.73 51.6607 47.5599 51.1394L46.4909 47.9217C46.2648 47.2336 46.2918 46.4871 46.567 45.8172C46.8422 45.1474 47.3473 44.5987 47.9909 44.2705L48.2969 44.1169L47.3449 41.934H45.1179L57.8369 22.4101C57.911 22.2998 57.9626 22.1759 57.9886 22.0454C58.0146 21.9149 58.0145 21.7805 57.9883 21.6501C57.962 21.5197 57.9102 21.3958 57.8359 21.2856C57.7615 21.1755 57.666 21.0813 57.5551 21.0085C57.4441 20.9357 57.3198 20.8858 57.1894 20.8616C57.059 20.8375 56.9252 20.8396 56.7956 20.8679C56.6661 20.8961 56.5434 20.95 56.4348 21.0262C56.3262 21.1025 56.2337 21.1997 56.1629 21.3121L39.4589 46.9522H24.5409L7.83685 21.3121C7.76598 21.1997 7.67355 21.1025 7.56491 21.0262C7.45628 20.95 7.33362 20.8961 7.20407 20.8679C7.07452 20.8396 6.94066 20.8375 6.81028 20.8616C6.67991 20.8858 6.55562 20.9357 6.44464 21.0085C6.33366 21.0813 6.23821 21.1755 6.16384 21.2856C6.08948 21.3958 6.03768 21.5197 6.01145 21.6501C5.98523 21.7805 5.98511 21.9149 6.0111 22.0454C6.0371 22.1759 6.08868 22.2998 6.16285 22.4101L18.8819 41.934Z" fill="#FFB0CD"/>
</svg>
