<svg width="64" height="64" viewBox="0 0 64 64" fill="none" xmlns="http://www.w3.org/2000/svg">
<path fill-rule="evenodd" clip-rule="evenodd" d="M48.5457 22.0909H15.4548C11.0181 22.0909 9.09115 25.9448 9.09115 28.4546V38.6364C9.09115 40.5035 9.66261 42.2407 10.6553 43.6687C11.1262 44.3458 13.4655 47.5455 18.0002 47.5455H25.2128C27.8092 47.5455 29.7106 45.7637 29.7106 45.7637C31.929 44.2033 33.9666 45.5193 34.2912 45.7637C34.2912 45.7637 36.115 47.5455 38.789 47.5455H46.0002C50.7322 47.5455 54.9093 43.7286 54.9093 38.6364V28.4546C54.9093 25.5375 52.5892 22.0909 48.5457 22.0909ZM15.4535 29.7298H17.999C19.6586 29.7298 19.749 27.2226 17.999 27.1844H15.4535C13.7913 27.1844 13.7366 29.7298 15.4535 29.7298Z" fill="#B6C4FF"/>
<path d="M7.75097 43.7209C6.9602 42.1425 6.54757 40.4018 6.5457 38.6364V28.4546C6.5457 27.6158 6.67043 26.8077 6.88806 26.0377C6.06486 26.2438 5.33391 26.7186 4.81087 27.3868C4.28783 28.0551 4.00258 28.8787 4.00024 29.7273V39.9091C4.00175 40.9091 4.39549 41.8685 5.09684 42.5813C5.79819 43.2941 6.75116 43.7033 7.75097 43.7209Z" fill="#69DEEF" fill-opacity="0.6"/>
<path d="M57.1124 26.0377C57.3301 26.8077 57.4548 27.6158 57.4548 28.4546V38.6364C57.4529 40.4018 57.0403 42.1425 56.2495 43.7209C57.2493 43.7033 58.2023 43.2941 58.9036 42.5813C59.605 41.8685 59.9987 40.9091 60.0002 39.9091V29.7273C59.9979 28.8787 59.7127 28.0551 59.1896 27.3868C58.6666 26.7186 57.9356 26.2438 57.1124 26.0377Z" fill="#69DEEF" fill-opacity="0.8"/>
<path d="M34.2453 17H29.7552C29.0457 16.9977 28.3497 17.1941 27.7462 17.5671C27.1427 17.9401 26.6557 18.4746 26.3404 19.1102L26.1228 19.5455H37.8777L37.6601 19.1102C37.3449 18.4745 36.858 17.9399 36.2544 17.5669C35.6508 17.1939 34.9548 16.9975 34.2453 17Z" fill="#FFB0CD"/>
</svg>
