<svg width="64" height="64" viewBox="0 0 64 64" fill="none" xmlns="http://www.w3.org/2000/svg">
<path fill-rule="evenodd" clip-rule="evenodd" d="M35.2558 50.2326V58.0465C35.2558 58.5646 35.4616 59.0615 35.828 59.4278C36.1943 59.7942 36.6912 60 37.2093 60C37.7274 60 38.2243 59.7942 38.5906 59.4278C38.957 59.0615 39.1628 58.5646 39.1628 58.0465V50.2326C39.1628 49.7145 38.957 49.2176 38.5906 48.8512C38.2243 48.4849 37.7274 48.2791 37.2093 48.2791C36.6912 48.2791 36.1943 48.4849 35.828 48.8512C35.4616 49.2176 35.2558 49.7145 35.2558 50.2326Z" fill="#69DEEF" fill-opacity="0.6"/>
<path fill-rule="evenodd" clip-rule="evenodd" d="M44.3721 17.0233H4V35.907C4 37.4613 4.61744 38.9519 5.71649 40.0509C6.81554 41.15 8.30617 41.7674 9.86047 41.7674H38.5116C40.0659 41.7674 41.5566 41.15 42.6556 40.0509C43.7547 38.9519 44.3721 37.4613 44.3721 35.907V17.0233ZM19.0419 34.7453L23.0192 22.8108C23.1002 22.5674 23.2284 22.3424 23.3965 22.1486C23.5645 21.9548 23.769 21.7959 23.9985 21.6812C24.2279 21.5664 24.4776 21.498 24.7335 21.4797C24.9894 21.4615 25.2463 21.4938 25.4897 21.5749C25.733 21.6559 25.9581 21.7842 26.1519 21.9522C26.3457 22.1202 26.5045 22.3248 26.6193 22.5542C26.7341 22.7836 26.8025 23.0334 26.8207 23.2892C26.839 23.5451 26.8066 23.802 26.7256 24.0454L22.7483 35.9799C22.5846 36.4714 22.2323 36.8777 21.769 37.1095C21.3057 37.3413 20.7693 37.3795 20.2778 37.2158C19.7863 37.0521 19.3799 36.6998 19.1482 36.2365C18.9164 35.7732 18.8781 35.2368 19.0419 34.7453ZM11.0847 28.0149L15.062 24.035C15.429 23.6696 15.9258 23.4645 16.4437 23.4645C16.9616 23.4645 17.4584 23.6696 17.8255 24.035C18.1908 24.402 18.3959 24.8989 18.3959 25.4167C18.3959 25.9346 18.1908 26.4315 17.8255 26.7985L15.2287 29.3953L17.8255 31.9922C18.1908 32.3592 18.3959 32.8561 18.3959 33.374C18.3959 33.8918 18.1908 34.3887 17.8255 34.7557C17.4584 35.1211 16.9616 35.3262 16.4437 35.3262C15.9258 35.3262 15.429 35.1211 15.062 34.7557L11.0847 30.7758C10.9032 30.5946 10.7593 30.3794 10.661 30.1426C10.5628 29.9057 10.5123 29.6518 10.5123 29.3953C10.5123 29.1389 10.5628 28.885 10.661 28.6481C10.7593 28.4113 10.9032 28.1961 11.0847 28.0149ZM30.5388 29.3953L27.942 26.7985C27.5766 26.4315 27.3715 25.9346 27.3715 25.4167C27.3715 24.8989 27.5766 24.402 27.942 24.035C28.309 23.6696 28.8058 23.4645 29.3237 23.4645C29.8416 23.4645 30.3384 23.6696 30.7055 24.035L34.6828 28.0149C34.8642 28.1961 35.0082 28.4113 35.1064 28.6481C35.2046 28.885 35.2552 29.1389 35.2552 29.3953C35.2552 29.6518 35.2046 29.9057 35.1064 30.1426C35.0082 30.3794 34.8642 30.5946 34.6828 30.7758L30.7055 34.7557C30.3384 35.1211 29.8416 35.3262 29.3237 35.3262C28.8058 35.3262 28.309 35.1211 27.942 34.7557C27.5766 34.3887 27.3715 33.8918 27.3715 33.374C27.3715 32.8561 27.5766 32.3592 27.942 31.9922L30.5388 29.3953Z" fill="#B6C4FF"/>
<path d="M4 13.1163H44.3721V9.86047C44.3721 8.30617 43.7547 6.81554 42.6556 5.71649C41.5566 4.61744 40.0659 4 38.5116 4H9.86047C8.30617 4 6.81554 4.61744 5.71649 5.71649C4.61744 6.81554 4 8.30617 4 9.86047V13.1163Z" fill="#FFB0CD"/>
<path opacity="0.6" fill-rule="evenodd" clip-rule="evenodd" d="M26.7908 60H47.628C48.1461 60 48.643 59.7942 49.0093 59.4279C49.3757 59.0615 49.5815 58.5646 49.5815 58.0465C49.5815 57.5284 49.3757 57.0316 49.0093 56.6652C48.643 56.2989 48.1461 56.093 47.628 56.093H26.7908C26.2727 56.093 25.7758 56.2989 25.4095 56.6652C25.0431 57.0316 24.8373 57.5284 24.8373 58.0465C24.8373 58.5646 25.0431 59.0615 25.4095 59.4279C25.7758 59.7942 26.2727 60 26.7908 60ZM46.9768 19.6279V35.907C46.9768 38.1521 46.085 40.3052 44.4975 41.8927C42.9099 43.4803 40.7568 44.3721 38.5117 44.3721H14.4187V46.3256C14.4187 47.8799 15.0361 49.3705 16.1352 50.4696C17.2342 51.5686 18.7249 52.1861 20.2792 52.1861H37.2094H54.1396C55.6939 52.1861 57.1846 51.5686 58.2836 50.4696C59.3827 49.3705 60.0001 47.8799 60.0001 46.3256V25.4884C60.0001 23.9341 59.3827 22.4435 58.2836 21.3444C57.1846 20.2454 55.6939 19.6279 54.1396 19.6279H46.9768Z" fill="#69DEEF"/>
</svg>
