<svg width="64" height="64" viewBox="0 0 64 64" fill="none" xmlns="http://www.w3.org/2000/svg">
<path d="M60 21.4584C60 20.9061 59.5523 20.4584 59 20.4584H48.835C48.5697 20.4584 48.3153 20.5638 48.1278 20.7514L27.2783 41.6062C27.0913 41.7933 26.989 42.0469 26.9745 42.3111C26.9187 43.3233 26.6434 44.762 25.6868 46.1225C24.5122 47.7929 22.6763 48.8421 20.23 49.2408C16.0625 49.92 14.1021 50.9818 14.0827 50.9925L13.4114 51.3739C12.8622 51.6859 12.1648 51.4168 11.9675 50.8168L11.7257 50.0814C11.6532 49.8648 9.9768 44.7207 12.3623 40.1793C13.6874 37.6566 15.9589 35.8506 19.1189 34.8033C19.2714 34.7527 19.4113 34.6686 19.525 34.5549L31.9142 22.1656C32.5441 21.5357 32.098 20.4585 31.2071 20.4585H5C4.44772 20.4585 4 20.9062 4 21.4585V56.2974C4 56.8497 4.44772 57.2974 5 57.2974H59C59.5523 57.2974 60 56.8497 60 56.2974V21.4584ZM54.2422 51.3746C54.2422 51.9269 53.7945 52.3746 53.2422 52.3746H32.9893C32.437 52.3746 31.9893 51.9269 31.9893 51.3746V50.0933C31.9893 49.541 32.437 49.0933 32.9893 49.0933H53.2422C53.7945 49.0933 54.2423 49.5411 54.2422 50.0934L54.2422 51.3746ZM54.2422 43.9952C54.2422 44.5475 53.7945 44.9952 53.2422 44.9952H32.9893C32.437 44.9952 31.9893 44.5474 31.9893 43.9952V42.7139C31.9893 42.1616 32.437 41.7139 32.9893 41.7139H53.2422C53.7945 41.7139 54.2423 42.1617 54.2422 42.7139L54.2422 43.9952ZM54.2422 36.6157C54.2422 37.168 53.7945 37.6157 53.2422 37.6157H45.0918C44.5396 37.6157 44.0918 37.168 44.0918 36.6157V35.3345C44.0918 34.7822 44.5396 34.3345 45.0918 34.3345H53.2422C53.7945 34.3345 54.2422 34.7822 54.2422 35.3345V36.6157ZM4 14.0718C4 13.5195 4.44772 13.0718 5 13.0718H7.21586C7.76814 13.0718 8.21586 13.5195 8.21586 14.0718V16.1772C8.21586 16.7295 7.76814 17.1772 7.21586 17.1772H5C4.44772 17.1772 4 16.7295 4 16.1772V14.0718ZM11.4971 14.0718C11.4971 13.5195 11.9448 13.0718 12.4971 13.0718H14.5953C15.1476 13.0718 15.5953 13.5195 15.5953 14.0718V16.1772C15.5953 16.7295 15.1476 17.1772 14.5953 17.1772H12.4971C11.9448 17.1772 11.4971 16.7295 11.4971 16.1772V14.0718Z" fill="#B6C4FF"/>
<path d="M15.2777 41.6852C14.5109 43.1338 14.3323 44.7273 14.3734 46.0601C14.393 46.6944 15.0361 47.0893 15.6448 46.9099C16.7154 46.5945 18.0641 46.2691 19.7024 46.0021C21.5364 45.7033 22.7562 44.9171 23.3284 43.6657C23.5333 43.2175 23.6304 42.7744 23.6741 42.4087C23.7067 42.1364 23.5955 41.8707 23.4015 41.6768L20.226 38.5021C19.9503 38.2265 19.5378 38.1324 19.1799 38.2869C17.3701 39.0678 16.0606 40.2065 15.2777 41.6852Z" fill="#69DEEF" fill-opacity="0.6"/>
<path d="M29.8034 33.0252C30.194 33.4157 30.8272 33.4156 31.2176 33.025L53.7714 10.4653C54.1618 10.0748 54.1618 9.44169 53.7713 9.05121L52.4273 7.70714C52.0367 7.3166 51.4036 7.31659 51.013 7.70713L28.4563 30.2641C28.0657 30.6547 28.0658 31.2879 28.4563 31.6784L29.8034 33.0252Z" fill="#69DEEF" fill-opacity="0.6"/>
<path d="M23.2443 36.8841C22.8537 36.4936 22.8537 35.8604 23.2443 35.4699L24.7162 33.9979C25.1068 33.6074 25.7399 33.6074 26.1305 33.9979L27.4775 35.345C27.868 35.7355 27.868 36.3687 27.4775 36.7592L26.0056 38.2312C25.615 38.6217 24.9819 38.6217 24.5913 38.2312L23.2443 36.8841Z" fill="#69DEEF" fill-opacity="0.6"/>
<path d="M18.8766 16.1771C18.8766 16.7294 19.3243 17.1771 19.8766 17.1771H36.5036C36.7598 17.1771 37.0063 17.0788 37.1921 16.9023L39.4097 14.7969C40.0649 14.1749 39.6246 13.0717 38.7212 13.0717H19.8766C19.3243 13.0717 18.8766 13.5194 18.8766 14.0717V16.1771Z" fill="#FFB0CD"/>
<path d="M53.5177 15.452C52.8626 16.0741 53.3029 17.1771 54.2063 17.1771H59.0001C59.5524 17.1771 60.0001 16.7294 60.0001 16.1771V14.0717C60.0001 13.5194 59.5524 13.0717 59.0001 13.0717H56.4232C56.167 13.0717 55.9205 13.1701 55.7346 13.3466L53.5177 15.452Z" fill="#FFB0CD"/>
</svg>
