<svg width="128" height="128" viewBox="0 0 128 128" fill="none" xmlns="http://www.w3.org/2000/svg">
<path d="M74.6667 31.9998V21.3332H53.3334V31.9998H74.6667ZM21.3334 47.9998V95.9998C21.3334 98.9332 23.7334 101.333 26.6667 101.333H101.333C104.267 101.333 106.667 98.9332 106.667 95.9998V47.9998C106.667 45.0665 104.267 42.6665 101.333 42.6665H26.6667C23.7334 42.6665 21.3334 45.0665 21.3334 47.9998ZM106.667 31.9998C112.587 31.9998 117.333 36.7465 117.333 42.6665V101.333C117.333 107.253 112.587 112 106.667 112H21.3334C15.4134 112 10.6667 107.253 10.6667 101.333L10.72 42.6665C10.72 36.7465 15.4134 31.9998 21.3334 31.9998H42.6667V21.3332C42.6667 15.4132 47.4134 10.6665 53.3334 10.6665H74.6667C80.5867 10.6665 85.3334 15.4132 85.3334 21.3332V31.9998H106.667Z" fill="#0E4FE3"/>
</svg>
