<svg width="264" height="38" viewBox="0 0 264 38" fill="none" xmlns="http://www.w3.org/2000/svg">
<g clip-path="url(#clip0_143_51)">
<path d="M108.01 8.62053C105.966 8.62053 103.959 9.18975 102.222 10.2456C101.172 10.8699 100.233 11.6594 99.425 12.5683C98.7839 11.687 97.9849 10.925 97.0743 10.319C95.4112 9.19893 93.4322 8.60217 91.4253 8.62053C89.0839 8.62053 86.9748 9.27238 85.1258 10.5577V9.27238H78.0088V35.5575C78.0088 36.8979 79.0773 37.9812 80.3966 37.9812H85.1351V25.5135C85.1351 21.8503 85.5347 20.1335 85.8598 19.3439C86.2872 18.2973 87.012 17.3883 87.9504 16.7365C88.8702 16.0847 89.8086 15.7725 90.8028 15.7725C91.7598 15.7725 92.5123 15.9928 93.0977 16.4703C93.6737 16.9201 94.064 17.5536 94.2219 18.2605C94.3799 18.9399 94.5657 20.363 94.5657 23.3468V35.585C94.5657 36.9254 95.6342 38.0088 96.9535 38.0088H101.636V26.3031C101.636 23.3652 101.859 21.1525 102.296 19.7295C102.677 18.4901 103.327 17.5352 104.284 16.8283C105.241 16.1214 106.217 15.7633 107.285 15.7633C108.326 15.7633 109.106 15.9745 109.673 16.4335C110.212 16.8559 110.602 17.4343 110.77 18.0953C110.918 18.7012 111.095 19.9498 111.095 22.493V35.5667C111.095 36.9071 112.163 37.9904 113.483 37.9904H118.305V22.493C118.305 17.269 117.32 13.7343 115.294 11.6686C113.278 9.6488 110.835 8.62053 108.01 8.62053Z" fill="#2C60F2"/>
<path d="M142.815 10.8704C140.622 9.38311 138.123 8.62109 135.345 8.62109C131.247 8.62109 127.726 10.0717 124.892 12.9361C122.049 15.7822 120.618 19.2618 120.618 23.2647C120.618 27.2676 122.04 30.738 124.855 33.63C127.689 36.522 131.145 37.991 135.131 37.991C137.909 37.991 140.492 37.1922 142.815 35.5948C142.815 36.4761 143.53 37.1831 144.422 37.1831H149.885V9.25458H142.815V10.8704ZM140.752 28.9661C139.238 30.4626 137.491 31.1879 135.41 31.1879C133.31 31.1879 131.554 30.4351 130.039 28.8743C128.516 27.3044 127.772 25.5049 127.772 23.3749C127.772 21.2449 128.497 19.4363 130.002 17.8663C131.48 16.3147 133.236 15.5711 135.373 15.5711C137.51 15.5711 139.293 16.2964 140.761 17.7929C142.248 19.3077 142.973 21.1347 142.973 23.4024C142.973 25.6701 142.267 27.4788 140.752 28.9661Z" fill="#2C60F2"/>
<path d="M175.167 27.4696C173.104 29.976 170.67 31.1879 167.706 31.1879C165.253 31.1879 163.311 30.4259 161.732 28.8376C160.152 27.2493 159.381 25.3947 159.381 23.1821C159.381 20.997 160.152 19.2159 161.732 17.7378C163.339 16.2505 165.3 15.516 167.706 15.516C170.772 15.516 173.188 16.7095 175.092 19.1517L176.031 20.3544L181.689 16.8197L180.834 15.4242C179.524 13.2667 177.62 11.5223 175.353 10.3838C173.058 9.20867 170.53 8.62109 167.836 8.62109C163.283 8.62109 159.493 10.09 156.594 12.9637C153.695 15.8373 152.218 19.3628 152.218 23.4208C152.218 27.4788 153.695 30.9584 156.584 33.7677C159.474 36.5771 163.107 37.991 167.381 37.991C170.084 37.991 172.64 37.4401 174.981 36.3384C177.322 35.2459 179.329 33.5566 180.788 31.445L181.736 30.0678L177.425 27.1391C176.709 26.6525 175.724 26.7902 175.167 27.4696Z" fill="#2C60F2"/>
<path d="M198.766 8.62092C195.951 8.62092 193.396 9.38294 191.138 10.8794V0H184.067V34.8234C184.067 36.1271 185.136 37.1829 186.455 37.1829H191.138V35.5762C193.331 37.1645 195.988 38.0092 198.701 37.9908C202.733 37.9908 206.227 36.531 209.061 33.6574C211.904 30.7929 213.335 27.295 213.335 23.2829C213.335 19.2708 211.932 15.8004 209.144 12.9452C206.348 10.0715 202.854 8.62092 198.766 8.62092ZM203.913 28.7364C202.417 30.2972 200.661 31.05 198.534 31.05C196.406 31.05 194.659 30.3064 193.173 28.764C191.677 27.2032 190.943 25.3486 190.943 23.0809C190.943 20.8224 191.658 19.023 193.136 17.554C194.613 16.085 196.378 15.3781 198.59 15.3781C200.764 15.3781 202.529 16.131 203.969 17.6825C205.456 19.2708 206.171 21.0887 206.171 23.2095C206.171 25.3303 205.437 27.1481 203.913 28.7364Z" fill="#2C60F2"/>
<path d="M237.632 25.5416H244.749L244.712 23.8339C244.61 19.2067 243.169 15.4793 240.429 12.7433C237.678 10.0074 234.213 8.62109 230.143 8.62109C226.055 8.62109 222.58 10.09 219.802 12.9729C217.052 15.8373 215.658 19.3261 215.658 23.329C215.658 27.3319 217.043 30.8023 219.765 33.6576C222.515 36.5312 226.055 37.9818 230.264 37.9818C233.293 37.9818 235.959 37.2657 238.171 35.8426C240.336 34.4471 242.222 32.308 243.783 29.4802L238.877 27.6716C237.948 27.3319 236.87 27.5522 236.229 28.3051C234.594 30.2331 232.54 31.1787 229.994 31.1787C228.09 31.1787 226.501 30.5269 225.126 29.1956C224.104 28.2041 223.444 27.0014 223.1 25.5232L237.632 25.5416ZM230.468 15.314C233.795 15.314 236.749 17.4348 237.771 20.5655H223.165C224.188 17.4348 227.142 15.314 230.468 15.314Z" fill="#2C60F2"/>
<path d="M263.963 8.97854C263.192 8.85919 262.411 8.8041 261.631 8.79492C259.029 8.79492 256.66 9.47431 254.569 10.8056C254.43 10.8882 254.291 10.9892 254.161 11.0902V9.44677H247.09V35.585C247.081 36.8978 248.149 37.9812 249.487 37.9904H254.03V23.6956C254.03 23.4753 254.04 23.2549 254.068 23.0346V23.0162C254.123 22.4837 254.226 21.9696 254.374 21.4555C254.95 19.3071 256.502 16.3509 260.646 15.9561L264.028 8.9969C263.981 8.98772 263.972 8.98772 263.963 8.97854Z" fill="#2C60F2"/>
<path d="M44.4212 6.94082C41.2436 4.7833 36.886 5.56368 34.6747 8.69439L21.7506 27.1298C19.5579 30.2788 20.3477 34.5847 23.516 36.7698C26.7029 38.9365 31.0604 38.1561 33.2717 35.0254L46.1958 16.5808C48.3885 13.4318 47.5988 9.12589 44.4212 6.94082Z" fill="#2C60F2"/>
<path d="M23.9246 6.60995C20.7377 4.44324 16.3801 5.22362 14.1688 8.35433L1.24479 26.7989C-0.947934 29.948 -0.158182 34.2538 3.01012 36.4389C6.197 38.6056 10.5546 37.8252 12.7659 34.6945L25.6899 16.25C27.8826 13.0917 27.0929 8.79502 23.9246 6.60995Z" fill="#2C60F2"/>
<path d="M49.0391 37.862C52.8414 37.862 55.9238 34.8162 55.9238 31.059C55.9238 27.3017 52.8414 24.2559 49.0391 24.2559C45.2367 24.2559 42.1543 27.3017 42.1543 31.059C42.1543 34.8162 45.2367 37.862 49.0391 37.862Z" fill="#2C60F2"/>
</g>
<defs>
<clipPath id="clip0_143_51">
<rect width="264" height="38" fill="white"/>
</clipPath>
</defs>
</svg>
